<?xml version="1.0" encoding="UTF-8" standalone="no"?>
<!DOCTYPE svg PUBLIC "-//W3C//DTD SVG 1.1//EN"
 "http://www.w3.org/Graphics/SVG/1.1/DTD/svg11.dtd">
<!-- Generated by graphviz version 2.32.0 (20130807.1552)
 -->
<!-- Title: bulldozerrebalanced Pages: 1 -->
<svg width="1361pt" height="716pt"
 viewBox="0.00 0.00 1361.00 716.00" xmlns="http://www.w3.org/2000/svg" xmlns:xlink="http://www.w3.org/1999/xlink">
<g id="graph0" class="graph" transform="scale(1 1) rotate(0) translate(4 712)">
<title>bulldozerrebalanced</title>
<polygon fill="white" stroke="white" points="-4,5 -4,-712 1358,-712 1358,5 -4,5"/>
<!-- 97465739 -->
<g id="node1" class="node"><title>97465739</title>
<polygon fill="#e3e3e3" stroke="black" points="960.452,-560.8 960.452,-635.2 1037.55,-635.2 1037.55,-560.8 960.452,-560.8"/>
<text text-anchor="middle" x="999" y="-617.2" font-family="Times,serif" font-size="14.00">concat</text>
<polyline fill="none" stroke="black" points="960.452,-610.4 1037.55,-610.4 "/>
<text text-anchor="middle" x="999" y="-592.4" font-family="Times,serif" font-size="14.00">102</text>
<polyline fill="none" stroke="black" points="960.452,-585.6 1037.55,-585.6 "/>
<text text-anchor="middle" x="977.779" y="-567.6" font-family="Times,serif" font-size="14.00">left</text>
<polyline fill="none" stroke="black" points="995.107,-560.8 995.107,-585.6 "/>
<text text-anchor="middle" x="1016.33" y="-567.6" font-family="Times,serif" font-size="14.00">right</text>
</g>
<!-- 86887156 -->
<g id="node2" class="node"><title>86887156</title>
<polygon fill="#e3e3e3" stroke="black" points="850.452,-448.8 850.452,-523.2 927.548,-523.2 927.548,-448.8 850.452,-448.8"/>
<text text-anchor="middle" x="889" y="-505.2" font-family="Times,serif" font-size="14.00">concat</text>
<polyline fill="none" stroke="black" points="850.452,-498.4 927.548,-498.4 "/>
<text text-anchor="middle" x="889" y="-480.4" font-family="Times,serif" font-size="14.00">78</text>
<polyline fill="none" stroke="black" points="850.452,-473.6 927.548,-473.6 "/>
<text text-anchor="middle" x="867.779" y="-455.6" font-family="Times,serif" font-size="14.00">left</text>
<polyline fill="none" stroke="black" points="885.107,-448.8 885.107,-473.6 "/>
<text text-anchor="middle" x="906.328" y="-455.6" font-family="Times,serif" font-size="14.00">right</text>
</g>
<!-- 97465739&#45;&gt;86887156 -->
<g id="edge31" class="edge"><title>97465739:left&#45;&gt;86887156:type</title>
<path fill="none" stroke="black" d="M959,-573C932.693,-573 952.053,-527.211 938.59,-514.333"/>
<polygon fill="black" stroke="black" points="939.595,-510.977 929,-511 937.296,-517.589 939.595,-510.977"/>
</g>
<!-- 28426592 -->
<g id="node33" class="node"><title>28426592</title>
<polygon fill="#e3e3e3" stroke="black" points="1107.45,-448.8 1107.45,-523.2 1184.55,-523.2 1184.55,-448.8 1107.45,-448.8"/>
<text text-anchor="middle" x="1146" y="-505.2" font-family="Times,serif" font-size="14.00">concat</text>
<polyline fill="none" stroke="black" points="1107.45,-498.4 1184.55,-498.4 "/>
<text text-anchor="middle" x="1146" y="-480.4" font-family="Times,serif" font-size="14.00">24</text>
<polyline fill="none" stroke="black" points="1107.45,-473.6 1184.55,-473.6 "/>
<text text-anchor="middle" x="1124.78" y="-455.6" font-family="Times,serif" font-size="14.00">left</text>
<polyline fill="none" stroke="black" points="1142.11,-448.8 1142.11,-473.6 "/>
<text text-anchor="middle" x="1163.33" y="-455.6" font-family="Times,serif" font-size="14.00">right</text>
</g>
<!-- 97465739&#45;&gt;28426592 -->
<g id="edge38" class="edge"><title>97465739:right&#45;&gt;28426592:type</title>
<path fill="none" stroke="black" d="M1039,-573C1075.77,-573 1067.6,-522.08 1095.94,-512.533"/>
<polygon fill="black" stroke="black" points="1096.64,-515.966 1106,-511 1095.59,-509.046 1096.64,-515.966"/>
</g>
<!-- 13896219 -->
<g id="node3" class="node"><title>13896219</title>
<polygon fill="#e3e3e3" stroke="black" points="391.452,-336.8 391.452,-411.2 468.548,-411.2 468.548,-336.8 391.452,-336.8"/>
<text text-anchor="middle" x="430" y="-393.2" font-family="Times,serif" font-size="14.00">concat</text>
<polyline fill="none" stroke="black" points="391.452,-386.4 468.548,-386.4 "/>
<text text-anchor="middle" x="430" y="-368.4" font-family="Times,serif" font-size="14.00">38</text>
<polyline fill="none" stroke="black" points="391.452,-361.6 468.548,-361.6 "/>
<text text-anchor="middle" x="408.779" y="-343.6" font-family="Times,serif" font-size="14.00">left</text>
<polyline fill="none" stroke="black" points="426.107,-336.8 426.107,-361.6 "/>
<text text-anchor="middle" x="447.328" y="-343.6" font-family="Times,serif" font-size="14.00">right</text>
</g>
<!-- 86887156&#45;&gt;13896219 -->
<g id="edge15" class="edge"><title>86887156:left&#45;&gt;13896219:type</title>
<path fill="none" stroke="black" d="M849,-461C681.817,-461 642.283,-401.517 480.335,-399.077"/>
<polygon fill="black" stroke="black" points="480.026,-395.575 470,-399 479.974,-402.575 480.026,-395.575"/>
</g>
<!-- 19111814 -->
<g id="node18" class="node"><title>19111814</title>
<polygon fill="#e3e3e3" stroke="black" points="867.452,-336.8 867.452,-411.2 944.548,-411.2 944.548,-336.8 867.452,-336.8"/>
<text text-anchor="middle" x="906" y="-393.2" font-family="Times,serif" font-size="14.00">concat</text>
<polyline fill="none" stroke="black" points="867.452,-386.4 944.548,-386.4 "/>
<text text-anchor="middle" x="906" y="-368.4" font-family="Times,serif" font-size="14.00">40</text>
<polyline fill="none" stroke="black" points="867.452,-361.6 944.548,-361.6 "/>
<text text-anchor="middle" x="884.779" y="-343.6" font-family="Times,serif" font-size="14.00">left</text>
<polyline fill="none" stroke="black" points="902.107,-336.8 902.107,-361.6 "/>
<text text-anchor="middle" x="923.328" y="-343.6" font-family="Times,serif" font-size="14.00">right</text>
</g>
<!-- 86887156&#45;&gt;19111814 -->
<g id="edge30" class="edge"><title>86887156:right&#45;&gt;19111814:type</title>
<path fill="none" stroke="black" d="M906,-448C906,-436 906,-430.75 906,-422.125"/>
<polygon fill="black" stroke="black" points="909.5,-422 906,-412 902.5,-422 909.5,-422"/>
</g>
<!-- 16103619 -->
<g id="node4" class="node"><title>16103619</title>
<polygon fill="#e3e3e3" stroke="black" points="157.452,-224.8 157.452,-299.2 234.548,-299.2 234.548,-224.8 157.452,-224.8"/>
<text text-anchor="middle" x="196" y="-281.2" font-family="Times,serif" font-size="14.00">concat</text>
<polyline fill="none" stroke="black" points="157.452,-274.4 234.548,-274.4 "/>
<text text-anchor="middle" x="196" y="-256.4" font-family="Times,serif" font-size="14.00">17</text>
<polyline fill="none" stroke="black" points="157.452,-249.6 234.548,-249.6 "/>
<text text-anchor="middle" x="174.779" y="-231.6" font-family="Times,serif" font-size="14.00">left</text>
<polyline fill="none" stroke="black" points="192.107,-224.8 192.107,-249.6 "/>
<text text-anchor="middle" x="213.328" y="-231.6" font-family="Times,serif" font-size="14.00">right</text>
</g>
<!-- 13896219&#45;&gt;16103619 -->
<g id="edge7" class="edge"><title>13896219:left&#45;&gt;16103619:type</title>
<path fill="none" stroke="black" d="M390,-349C319.82,-349 310.572,-292.907 246.342,-287.429"/>
<polygon fill="black" stroke="black" points="246.137,-283.918 236,-287 245.846,-290.912 246.137,-283.918"/>
</g>
<!-- 86416567 -->
<g id="node11" class="node"><title>86416567</title>
<polygon fill="#e3e3e3" stroke="black" points="408.452,-224.8 408.452,-299.2 485.548,-299.2 485.548,-224.8 408.452,-224.8"/>
<text text-anchor="middle" x="447" y="-281.2" font-family="Times,serif" font-size="14.00">concat</text>
<polyline fill="none" stroke="black" points="408.452,-274.4 485.548,-274.4 "/>
<text text-anchor="middle" x="447" y="-256.4" font-family="Times,serif" font-size="14.00">21</text>
<polyline fill="none" stroke="black" points="408.452,-249.6 485.548,-249.6 "/>
<text text-anchor="middle" x="425.779" y="-231.6" font-family="Times,serif" font-size="14.00">left</text>
<polyline fill="none" stroke="black" points="443.107,-224.8 443.107,-249.6 "/>
<text text-anchor="middle" x="464.328" y="-231.6" font-family="Times,serif" font-size="14.00">right</text>
</g>
<!-- 13896219&#45;&gt;86416567 -->
<g id="edge14" class="edge"><title>13896219:right&#45;&gt;86416567:type</title>
<path fill="none" stroke="black" d="M447,-336C447,-324 447,-318.75 447,-310.125"/>
<polygon fill="black" stroke="black" points="450.5,-310 447,-300 443.5,-310 450.5,-310"/>
</g>
<!-- 91624242 -->
<g id="node5" class="node"><title>91624242</title>
<polygon fill="#e3e3e3" stroke="black" points="46.4517,-112.8 46.4517,-187.2 123.548,-187.2 123.548,-112.8 46.4517,-112.8"/>
<text text-anchor="middle" x="85" y="-169.2" font-family="Times,serif" font-size="14.00">concat</text>
<polyline fill="none" stroke="black" points="46.4517,-162.4 123.548,-162.4 "/>
<text text-anchor="middle" x="85" y="-144.4" font-family="Times,serif" font-size="14.00">8</text>
<polyline fill="none" stroke="black" points="46.4517,-137.6 123.548,-137.6 "/>
<text text-anchor="middle" x="63.7793" y="-119.6" font-family="Times,serif" font-size="14.00">left</text>
<polyline fill="none" stroke="black" points="81.1069,-112.8 81.1069,-137.6 "/>
<text text-anchor="middle" x="102.328" y="-119.6" font-family="Times,serif" font-size="14.00">right</text>
</g>
<!-- 16103619&#45;&gt;91624242 -->
<g id="edge3" class="edge"><title>16103619:left&#45;&gt;91624242:type</title>
<path fill="none" stroke="black" d="M156,-237C129.524,-237 148.412,-191.211 134.695,-178.333"/>
<polygon fill="black" stroke="black" points="135.595,-174.942 125,-175 133.319,-181.561 135.595,-174.942"/>
</g>
<!-- 90943341 -->
<g id="node8" class="node"><title>90943341</title>
<polygon fill="#e3e3e3" stroke="black" points="174.452,-112.8 174.452,-187.2 251.548,-187.2 251.548,-112.8 174.452,-112.8"/>
<text text-anchor="middle" x="213" y="-169.2" font-family="Times,serif" font-size="14.00">concat</text>
<polyline fill="none" stroke="black" points="174.452,-162.4 251.548,-162.4 "/>
<text text-anchor="middle" x="213" y="-144.4" font-family="Times,serif" font-size="14.00">9</text>
<polyline fill="none" stroke="black" points="174.452,-137.6 251.548,-137.6 "/>
<text text-anchor="middle" x="191.779" y="-119.6" font-family="Times,serif" font-size="14.00">left</text>
<polyline fill="none" stroke="black" points="209.107,-112.8 209.107,-137.6 "/>
<text text-anchor="middle" x="230.328" y="-119.6" font-family="Times,serif" font-size="14.00">right</text>
</g>
<!-- 16103619&#45;&gt;90943341 -->
<g id="edge6" class="edge"><title>16103619:right&#45;&gt;90943341:type</title>
<path fill="none" stroke="black" d="M213,-224C213,-212 213,-206.75 213,-198.125"/>
<polygon fill="black" stroke="black" points="216.5,-198 213,-188 209.5,-198 216.5,-198"/>
</g>
<!-- 132039725 -->
<g id="node6" class="node"><title>132039725</title>
<polygon fill="none" stroke="black" points="-0.98291,-0.8 -0.98291,-75.2 56.9829,-75.2 56.9829,-0.8 -0.98291,-0.8"/>
<text text-anchor="middle" x="28" y="-57.2" font-family="Times,serif" font-size="14.00">leaf</text>
<polyline fill="none" stroke="black" points="-0.98291,-50.4 56.9829,-50.4 "/>
<text text-anchor="middle" x="28" y="-32.4" font-family="Times,serif" font-size="14.00">4</text>
<polyline fill="none" stroke="black" points="-0.98291,-25.6 56.9829,-25.6 "/>
<text text-anchor="middle" x="28" y="-7.6" font-family="Times,serif" font-size="14.00">“Have”</text>
</g>
<!-- 91624242&#45;&gt;132039725 -->
<g id="edge1" class="edge"><title>91624242:left&#45;&gt;132039725:type</title>
<path fill="none" stroke="black" d="M64,-112C64,-104.287 66.4572,-83.1953 64.1028,-71.3522"/>
<polygon fill="black" stroke="black" points="66.7257,-69.0094 58,-63 61.0737,-73.1392 66.7257,-69.0094"/>
</g>
<!-- 111192482 -->
<g id="node7" class="node"><title>111192482</title>
<polygon fill="none" stroke="black" points="75,-0.8 75,-75.2 129,-75.2 129,-0.8 75,-0.8"/>
<text text-anchor="middle" x="101.964" y="-57.2" font-family="Times,serif" font-size="14.00">leaf</text>
<polyline fill="none" stroke="black" points="75,-50.4 128.928,-50.4 "/>
<text text-anchor="middle" x="101.964" y="-32.4" font-family="Times,serif" font-size="14.00">4</text>
<polyline fill="none" stroke="black" points="75,-25.6 128.928,-25.6 "/>
<text text-anchor="middle" x="101.964" y="-7.6" font-family="Times,serif" font-size="14.00">“ you”</text>
</g>
<!-- 91624242&#45;&gt;111192482 -->
<g id="edge2" class="edge"><title>91624242:right&#45;&gt;111192482:type</title>
<path fill="none" stroke="black" d="M102,-112C102,-100 102,-94.75 102,-86.125"/>
<polygon fill="black" stroke="black" points="105.5,-86 102,-76 98.5001,-86 105.5,-86"/>
</g>
<!-- 20211335 -->
<g id="node9" class="node"><title>20211335</title>
<polygon fill="none" stroke="black" points="147,-0.8 147,-75.2 201,-75.2 201,-0.8 147,-0.8"/>
<text text-anchor="middle" x="173.571" y="-57.2" font-family="Times,serif" font-size="14.00">leaf</text>
<polyline fill="none" stroke="black" points="147,-50.4 200.142,-50.4 "/>
<text text-anchor="middle" x="173.571" y="-32.4" font-family="Times,serif" font-size="14.00">4</text>
<polyline fill="none" stroke="black" points="147,-25.6 200.142,-25.6 "/>
<text text-anchor="middle" x="173.571" y="-7.6" font-family="Times,serif" font-size="14.00">“ any”</text>
</g>
<!-- 90943341&#45;&gt;20211335 -->
<g id="edge4" class="edge"><title>90943341:left&#45;&gt;20211335:type</title>
<path fill="none" stroke="black" d="M192,-112C192,-98.1643 181.232,-94.8963 176.353,-85.8491"/>
<polygon fill="black" stroke="black" points="179.728,-84.9129 174,-76 172.92,-86.5396 179.728,-84.9129"/>
</g>
<!-- 20732410 -->
<g id="node10" class="node"><title>20732410</title>
<polygon fill="none" stroke="black" points="219.377,-0.8 219.377,-75.2 274.623,-75.2 274.623,-0.8 219.377,-0.8"/>
<text text-anchor="middle" x="247" y="-57.2" font-family="Times,serif" font-size="14.00">leaf</text>
<polyline fill="none" stroke="black" points="219.377,-50.4 274.623,-50.4 "/>
<text text-anchor="middle" x="247" y="-32.4" font-family="Times,serif" font-size="14.00">5</text>
<polyline fill="none" stroke="black" points="219.377,-25.6 274.623,-25.6 "/>
<text text-anchor="middle" x="247" y="-7.6" font-family="Times,serif" font-size="14.00">“ idea”</text>
</g>
<!-- 90943341&#45;&gt;20732410 -->
<g id="edge5" class="edge"><title>90943341:right&#45;&gt;20732410:type</title>
<path fill="none" stroke="black" d="M230,-112C230,-98.3146 240.169,-94.8482 244.778,-85.7933"/>
<polygon fill="black" stroke="black" points="248.2,-86.5266 247,-76 241.374,-84.9774 248.2,-86.5266"/>
</g>
<!-- 98226531 -->
<g id="node12" class="node"><title>98226531</title>
<polygon fill="#e3e3e3" stroke="black" points="343.452,-112.8 343.452,-187.2 420.548,-187.2 420.548,-112.8 343.452,-112.8"/>
<text text-anchor="middle" x="382" y="-169.2" font-family="Times,serif" font-size="14.00">concat</text>
<polyline fill="none" stroke="black" points="343.452,-162.4 420.548,-162.4 "/>
<text text-anchor="middle" x="382" y="-144.4" font-family="Times,serif" font-size="14.00">9</text>
<polyline fill="none" stroke="black" points="343.452,-137.6 420.548,-137.6 "/>
<text text-anchor="middle" x="360.779" y="-119.6" font-family="Times,serif" font-size="14.00">left</text>
<polyline fill="none" stroke="black" points="378.107,-112.8 378.107,-137.6 "/>
<text text-anchor="middle" x="399.328" y="-119.6" font-family="Times,serif" font-size="14.00">right</text>
</g>
<!-- 86416567&#45;&gt;98226531 -->
<g id="edge10" class="edge"><title>86416567:left&#45;&gt;98226531:type</title>
<path fill="none" stroke="black" d="M426,-224C426,-207.271 436.463,-187.435 431.562,-179.056"/>
<polygon fill="black" stroke="black" points="432.573,-175.683 422,-175 429.839,-182.127 432.573,-175.683"/>
</g>
<!-- 75628698 -->
<g id="node15" class="node"><title>75628698</title>
<polygon fill="#e3e3e3" stroke="black" points="468.452,-112.8 468.452,-187.2 545.548,-187.2 545.548,-112.8 468.452,-112.8"/>
<text text-anchor="middle" x="507" y="-169.2" font-family="Times,serif" font-size="14.00">concat</text>
<polyline fill="none" stroke="black" points="468.452,-162.4 545.548,-162.4 "/>
<text text-anchor="middle" x="507" y="-144.4" font-family="Times,serif" font-size="14.00">12</text>
<polyline fill="none" stroke="black" points="468.452,-137.6 545.548,-137.6 "/>
<text text-anchor="middle" x="485.779" y="-119.6" font-family="Times,serif" font-size="14.00">left</text>
<polyline fill="none" stroke="black" points="503.107,-112.8 503.107,-137.6 "/>
<text text-anchor="middle" x="524.328" y="-119.6" font-family="Times,serif" font-size="14.00">right</text>
</g>
<!-- 86416567&#45;&gt;75628698 -->
<g id="edge13" class="edge"><title>86416567:right&#45;&gt;75628698:type</title>
<path fill="none" stroke="black" d="M464,-224C464,-207.295 452.969,-187.447 457.59,-179.06"/>
<polygon fill="black" stroke="black" points="459.205,-182.176 467,-175 456.432,-175.748 459.205,-182.176"/>
</g>
<!-- 50255239 -->
<g id="node13" class="node"><title>50255239</title>
<polygon fill="none" stroke="black" points="292.981,-0.8 292.981,-75.2 349.019,-75.2 349.019,-0.8 292.981,-0.8"/>
<text text-anchor="middle" x="321" y="-57.2" font-family="Times,serif" font-size="14.00">leaf</text>
<polyline fill="none" stroke="black" points="292.981,-50.4 349.019,-50.4 "/>
<text text-anchor="middle" x="321" y="-32.4" font-family="Times,serif" font-size="14.00">4</text>
<polyline fill="none" stroke="black" points="292.981,-25.6 349.019,-25.6 "/>
<text text-anchor="middle" x="321" y="-7.6" font-family="Times,serif" font-size="14.00">“ how”</text>
</g>
<!-- 98226531&#45;&gt;50255239 -->
<g id="edge8" class="edge"><title>98226531:left&#45;&gt;50255239:type</title>
<path fill="none" stroke="black" d="M361,-112C361,-108.033 358.261,-84.9404 354.672,-71.9215"/>
<polygon fill="black" stroke="black" points="357.74,-70.2353 350,-63 351.538,-73.4826 357.74,-70.2353"/>
</g>
<!-- 4575007 -->
<g id="node14" class="node"><title>4575007</title>
<polygon fill="none" stroke="black" points="367.484,-0.8 367.484,-75.2 430.516,-75.2 430.516,-0.8 367.484,-0.8"/>
<text text-anchor="middle" x="399" y="-57.2" font-family="Times,serif" font-size="14.00">leaf</text>
<polyline fill="none" stroke="black" points="367.484,-50.4 430.516,-50.4 "/>
<text text-anchor="middle" x="399" y="-32.4" font-family="Times,serif" font-size="14.00">5</text>
<polyline fill="none" stroke="black" points="367.484,-25.6 430.516,-25.6 "/>
<text text-anchor="middle" x="399" y="-7.6" font-family="Times,serif" font-size="14.00">“ much”</text>
</g>
<!-- 98226531&#45;&gt;4575007 -->
<g id="edge9" class="edge"><title>98226531:right&#45;&gt;4575007:type</title>
<path fill="none" stroke="black" d="M399,-112C399,-100 399,-94.75 399,-86.125"/>
<polygon fill="black" stroke="black" points="402.5,-86 399,-76 395.5,-86 402.5,-86"/>
</g>
<!-- 108631001 -->
<g id="node16" class="node"><title>108631001</title>
<polygon fill="none" stroke="black" points="448.271,-0.8 448.271,-75.2 523.729,-75.2 523.729,-0.8 448.271,-0.8"/>
<text text-anchor="middle" x="486" y="-57.2" font-family="Times,serif" font-size="14.00">leaf</text>
<polyline fill="none" stroke="black" points="448.271,-50.4 523.729,-50.4 "/>
<text text-anchor="middle" x="486" y="-32.4" font-family="Times,serif" font-size="14.00">7</text>
<polyline fill="none" stroke="black" points="448.271,-25.6 523.729,-25.6 "/>
<text text-anchor="middle" x="486" y="-7.6" font-family="Times,serif" font-size="14.00">“ damage”</text>
</g>
<!-- 75628698&#45;&gt;108631001 -->
<g id="edge11" class="edge"><title>75628698:left&#45;&gt;108631001:type</title>
<path fill="none" stroke="black" d="M486,-112C486,-100 486,-94.75 486,-86.125"/>
<polygon fill="black" stroke="black" points="489.5,-86 486,-76 482.5,-86 489.5,-86"/>
</g>
<!-- 3059071 -->
<g id="node17" class="node"><title>3059071</title>
<polygon fill="none" stroke="black" points="542,-0.8 542,-75.2 596,-75.2 596,-0.8 542,-0.8"/>
<text text-anchor="middle" x="568.96" y="-57.2" font-family="Times,serif" font-size="14.00">leaf</text>
<polyline fill="none" stroke="black" points="542,-50.4 595.921,-50.4 "/>
<text text-anchor="middle" x="568.96" y="-32.4" font-family="Times,serif" font-size="14.00">5</text>
<polyline fill="none" stroke="black" points="542,-25.6 595.921,-25.6 "/>
<text text-anchor="middle" x="568.96" y="-7.6" font-family="Times,serif" font-size="14.00">“ that”</text>
</g>
<!-- 75628698&#45;&gt;3059071 -->
<g id="edge12" class="edge"><title>75628698:right&#45;&gt;3059071:type</title>
<path fill="none" stroke="black" d="M524,-112C524,-107.858 529.805,-84.3566 535.21,-71.4648"/>
<polygon fill="black" stroke="black" points="538.243,-73.2299 541,-63 532.466,-69.2781 538.243,-73.2299"/>
</g>
<!-- 18501043 -->
<g id="node19" class="node"><title>18501043</title>
<polygon fill="#e3e3e3" stroke="black" points="818.452,-224.8 818.452,-299.2 895.548,-299.2 895.548,-224.8 818.452,-224.8"/>
<text text-anchor="middle" x="857" y="-281.2" font-family="Times,serif" font-size="14.00">concat</text>
<polyline fill="none" stroke="black" points="818.452,-274.4 895.548,-274.4 "/>
<text text-anchor="middle" x="857" y="-256.4" font-family="Times,serif" font-size="14.00">26</text>
<polyline fill="none" stroke="black" points="818.452,-249.6 895.548,-249.6 "/>
<text text-anchor="middle" x="835.779" y="-231.6" font-family="Times,serif" font-size="14.00">left</text>
<polyline fill="none" stroke="black" points="853.107,-224.8 853.107,-249.6 "/>
<text text-anchor="middle" x="874.328" y="-231.6" font-family="Times,serif" font-size="14.00">right</text>
</g>
<!-- 19111814&#45;&gt;18501043 -->
<g id="edge22" class="edge"><title>19111814:left&#45;&gt;18501043:type</title>
<path fill="none" stroke="black" d="M885,-336C885,-320.761 900.902,-303.6 904.049,-294.171"/>
<polygon fill="black" stroke="black" points="906.506,-291.678 897,-287 901.514,-296.585 906.506,-291.678"/>
</g>
<!-- 74817726 -->
<g id="node26" class="node"><title>74817726</title>
<polygon fill="#e3e3e3" stroke="black" points="959.452,-224.8 959.452,-299.2 1036.55,-299.2 1036.55,-224.8 959.452,-224.8"/>
<text text-anchor="middle" x="998" y="-281.2" font-family="Times,serif" font-size="14.00">concat</text>
<polyline fill="none" stroke="black" points="959.452,-274.4 1036.55,-274.4 "/>
<text text-anchor="middle" x="998" y="-256.4" font-family="Times,serif" font-size="14.00">14</text>
<polyline fill="none" stroke="black" points="959.452,-249.6 1036.55,-249.6 "/>
<text text-anchor="middle" x="976.779" y="-231.6" font-family="Times,serif" font-size="14.00">left</text>
<polyline fill="none" stroke="black" points="994.107,-224.8 994.107,-249.6 "/>
<text text-anchor="middle" x="1015.33" y="-231.6" font-family="Times,serif" font-size="14.00">right</text>
</g>
<!-- 19111814&#45;&gt;74817726 -->
<g id="edge29" class="edge"><title>19111814:right&#45;&gt;74817726:type</title>
<path fill="none" stroke="black" d="M946,-349C969.243,-349 942.971,-306.481 949.193,-291.865"/>
<polygon fill="black" stroke="black" points="950.939,-294.899 958,-287 947.554,-288.772 950.939,-294.899"/>
</g>
<!-- 110300708 -->
<g id="node20" class="node"><title>110300708</title>
<polygon fill="#e3e3e3" stroke="black" points="694.452,-112.8 694.452,-187.2 771.548,-187.2 771.548,-112.8 694.452,-112.8"/>
<text text-anchor="middle" x="733" y="-169.2" font-family="Times,serif" font-size="14.00">concat</text>
<polyline fill="none" stroke="black" points="694.452,-162.4 771.548,-162.4 "/>
<text text-anchor="middle" x="733" y="-144.4" font-family="Times,serif" font-size="14.00">16</text>
<polyline fill="none" stroke="black" points="694.452,-137.6 771.548,-137.6 "/>
<text text-anchor="middle" x="711.779" y="-119.6" font-family="Times,serif" font-size="14.00">left</text>
<polyline fill="none" stroke="black" points="729.107,-112.8 729.107,-137.6 "/>
<text text-anchor="middle" x="750.328" y="-119.6" font-family="Times,serif" font-size="14.00">right</text>
</g>
<!-- 18501043&#45;&gt;110300708 -->
<g id="edge18" class="edge"><title>18501043:left&#45;&gt;110300708:type</title>
<path fill="none" stroke="black" d="M817,-237C787.302,-237 801.92,-189.106 782.955,-177.507"/>
<polygon fill="black" stroke="black" points="783.552,-174.048 773,-175 781.842,-180.836 783.552,-174.048"/>
</g>
<!-- 72506789 -->
<g id="node23" class="node"><title>72506789</title>
<polygon fill="#e3e3e3" stroke="black" points="835.452,-112.8 835.452,-187.2 912.548,-187.2 912.548,-112.8 835.452,-112.8"/>
<text text-anchor="middle" x="874" y="-169.2" font-family="Times,serif" font-size="14.00">concat</text>
<polyline fill="none" stroke="black" points="835.452,-162.4 912.548,-162.4 "/>
<text text-anchor="middle" x="874" y="-144.4" font-family="Times,serif" font-size="14.00">10</text>
<polyline fill="none" stroke="black" points="835.452,-137.6 912.548,-137.6 "/>
<text text-anchor="middle" x="852.779" y="-119.6" font-family="Times,serif" font-size="14.00">left</text>
<polyline fill="none" stroke="black" points="870.107,-112.8 870.107,-137.6 "/>
<text text-anchor="middle" x="891.328" y="-119.6" font-family="Times,serif" font-size="14.00">right</text>
</g>
<!-- 18501043&#45;&gt;72506789 -->
<g id="edge21" class="edge"><title>18501043:right&#45;&gt;72506789:type</title>
<path fill="none" stroke="black" d="M874,-224C874,-212 874,-206.75 874,-198.125"/>
<polygon fill="black" stroke="black" points="877.5,-198 874,-188 870.5,-198 877.5,-198"/>
</g>
<!-- 83159754 -->
<g id="node21" class="node"><title>83159754</title>
<polygon fill="none" stroke="black" points="613.602,-0.8 613.602,-75.2 698.398,-75.2 698.398,-0.8 613.602,-0.8"/>
<text text-anchor="middle" x="656" y="-57.2" font-family="Times,serif" font-size="14.00">leaf</text>
<polyline fill="none" stroke="black" points="613.602,-50.4 698.398,-50.4 "/>
<text text-anchor="middle" x="656" y="-32.4" font-family="Times,serif" font-size="14.00">10</text>
<polyline fill="none" stroke="black" points="613.602,-25.6 698.398,-25.6 "/>
<text text-anchor="middle" x="656" y="-7.6" font-family="Times,serif" font-size="14.00">“ bulldozer”</text>
</g>
<!-- 110300708&#45;&gt;83159754 -->
<g id="edge16" class="edge"><title>110300708:left&#45;&gt;83159754:type</title>
<path fill="none" stroke="black" d="M712,-112C712,-107.995 708.276,-84.9187 704.1,-71.9121"/>
<polygon fill="black" stroke="black" points="707.004,-69.9412 699,-63 700.929,-73.4178 707.004,-69.9412"/>
</g>
<!-- 86653836 -->
<g id="node22" class="node"><title>86653836</title>
<polygon fill="none" stroke="black" points="716.536,-0.8 716.536,-75.2 783.464,-75.2 783.464,-0.8 716.536,-0.8"/>
<text text-anchor="middle" x="750" y="-57.2" font-family="Times,serif" font-size="14.00">leaf</text>
<polyline fill="none" stroke="black" points="716.536,-50.4 783.464,-50.4 "/>
<text text-anchor="middle" x="750" y="-32.4" font-family="Times,serif" font-size="14.00">6</text>
<polyline fill="none" stroke="black" points="716.536,-25.6 783.464,-25.6 "/>
<text text-anchor="middle" x="750" y="-7.6" font-family="Times,serif" font-size="14.00">“ would”</text>
</g>
<!-- 110300708&#45;&gt;86653836 -->
<g id="edge17" class="edge"><title>110300708:right&#45;&gt;86653836:type</title>
<path fill="none" stroke="black" d="M750,-112C750,-100 750,-94.75 750,-86.125"/>
<polygon fill="black" stroke="black" points="753.5,-86 750,-76 746.5,-86 753.5,-86"/>
</g>
<!-- 7557848 -->
<g id="node24" class="node"><title>7557848</title>
<polygon fill="none" stroke="black" points="801.835,-0.8 801.835,-75.2 866.165,-75.2 866.165,-0.8 801.835,-0.8"/>
<text text-anchor="middle" x="834" y="-57.2" font-family="Times,serif" font-size="14.00">leaf</text>
<polyline fill="none" stroke="black" points="801.835,-50.4 866.165,-50.4 "/>
<text text-anchor="middle" x="834" y="-32.4" font-family="Times,serif" font-size="14.00">7</text>
<polyline fill="none" stroke="black" points="801.835,-25.6 866.165,-25.6 "/>
<text text-anchor="middle" x="834" y="-7.6" font-family="Times,serif" font-size="14.00">“ suffer”</text>
</g>
<!-- 72506789&#45;&gt;7557848 -->
<g id="edge19" class="edge"><title>72506789:left&#45;&gt;7557848:type</title>
<path fill="none" stroke="black" d="M853,-112C853,-98.0072 841.634,-94.9467 836.484,-85.9075"/>
<polygon fill="black" stroke="black" points="839.827,-84.8486 834,-76 833.037,-86.551 839.827,-84.8486"/>
</g>
<!-- 55465842 -->
<g id="node25" class="node"><title>55465842</title>
<polygon fill="none" stroke="black" points="884,-0.8 884,-75.2 938,-75.2 938,-0.8 884,-0.8"/>
<text text-anchor="middle" x="910.74" y="-57.2" font-family="Times,serif" font-size="14.00">leaf</text>
<polyline fill="none" stroke="black" points="884,-50.4 937.479,-50.4 "/>
<text text-anchor="middle" x="910.74" y="-32.4" font-family="Times,serif" font-size="14.00">3</text>
<polyline fill="none" stroke="black" points="884,-25.6 937.479,-25.6 "/>
<text text-anchor="middle" x="910.74" y="-7.6" font-family="Times,serif" font-size="14.00">“ if”</text>
</g>
<!-- 72506789&#45;&gt;55465842 -->
<g id="edge20" class="edge"><title>72506789:right&#45;&gt;55465842:type</title>
<path fill="none" stroke="black" d="M891,-112C891,-97.8435 902.964,-94.9991 908.385,-85.9684"/>
<polygon fill="black" stroke="black" points="911.848,-86.5608 911,-76 905.077,-84.7848 911.848,-86.5608"/>
</g>
<!-- 81847318 -->
<g id="node27" class="node"><title>81847318</title>
<polygon fill="#e3e3e3" stroke="black" points="965.452,-112.8 965.452,-187.2 1042.55,-187.2 1042.55,-112.8 965.452,-112.8"/>
<text text-anchor="middle" x="1004" y="-169.2" font-family="Times,serif" font-size="14.00">concat</text>
<polyline fill="none" stroke="black" points="965.452,-162.4 1042.55,-162.4 "/>
<text text-anchor="middle" x="1004" y="-144.4" font-family="Times,serif" font-size="14.00">7</text>
<polyline fill="none" stroke="black" points="965.452,-137.6 1042.55,-137.6 "/>
<text text-anchor="middle" x="982.779" y="-119.6" font-family="Times,serif" font-size="14.00">left</text>
<polyline fill="none" stroke="black" points="1000.11,-112.8 1000.11,-137.6 "/>
<text text-anchor="middle" x="1021.33" y="-119.6" font-family="Times,serif" font-size="14.00">right</text>
</g>
<!-- 74817726&#45;&gt;81847318 -->
<g id="edge25" class="edge"><title>74817726:left&#45;&gt;81847318:type</title>
<path fill="none" stroke="black" d="M977,-224C977,-208.062 994.145,-207.365 1001.11,-197.619"/>
<polygon fill="black" stroke="black" points="1004.48,-198.584 1004,-188 997.771,-196.57 1004.48,-198.584"/>
</g>
<!-- 4232387 -->
<g id="node30" class="node"><title>4232387</title>
<polygon fill="#e3e3e3" stroke="black" points="1109.45,-112.8 1109.45,-187.2 1186.55,-187.2 1186.55,-112.8 1109.45,-112.8"/>
<text text-anchor="middle" x="1148" y="-169.2" font-family="Times,serif" font-size="14.00">concat</text>
<polyline fill="none" stroke="black" points="1109.45,-162.4 1186.55,-162.4 "/>
<text text-anchor="middle" x="1148" y="-144.4" font-family="Times,serif" font-size="14.00">7</text>
<polyline fill="none" stroke="black" points="1109.45,-137.6 1186.55,-137.6 "/>
<text text-anchor="middle" x="1126.78" y="-119.6" font-family="Times,serif" font-size="14.00">left</text>
<polyline fill="none" stroke="black" points="1144.11,-112.8 1144.11,-137.6 "/>
<text text-anchor="middle" x="1165.33" y="-119.6" font-family="Times,serif" font-size="14.00">right</text>
</g>
<!-- 74817726&#45;&gt;4232387 -->
<g id="edge28" class="edge"><title>74817726:right&#45;&gt;4232387:type</title>
<path fill="none" stroke="black" d="M1038,-237C1044.78,-237 1041.49,-229.07 1046,-224 1066.88,-200.522 1071.91,-179.838 1097.88,-175.737"/>
<polygon fill="black" stroke="black" points="1098.28,-179.217 1108,-175 1097.77,-172.235 1098.28,-179.217"/>
</g>
<!-- 54316495 -->
<g id="node28" class="node"><title>54316495</title>
<polygon fill="none" stroke="black" points="956,-0.8 956,-75.2 1010,-75.2 1010,-0.8 956,-0.8"/>
<text text-anchor="middle" x="982.99" y="-57.2" font-family="Times,serif" font-size="14.00">leaf</text>
<polyline fill="none" stroke="black" points="956,-50.4 1009.98,-50.4 "/>
<text text-anchor="middle" x="982.99" y="-32.4" font-family="Times,serif" font-size="14.00">2</text>
<polyline fill="none" stroke="black" points="956,-25.6 1009.98,-25.6 "/>
<text text-anchor="middle" x="982.99" y="-7.6" font-family="Times,serif" font-size="14.00">“ I”</text>
</g>
<!-- 81847318&#45;&gt;54316495 -->
<g id="edge23" class="edge"><title>81847318:left&#45;&gt;54316495:type</title>
<path fill="none" stroke="black" d="M983,-112C983,-100 983,-94.75 983,-86.125"/>
<polygon fill="black" stroke="black" points="986.5,-86 983,-76 979.5,-86 986.5,-86"/>
</g>
<!-- 98179958 -->
<g id="node29" class="node"><title>98179958</title>
<polygon fill="none" stroke="black" points="1028,-0.8 1028,-75.2 1082,-75.2 1082,-0.8 1028,-0.8"/>
<text text-anchor="middle" x="1054.58" y="-57.2" font-family="Times,serif" font-size="14.00">leaf</text>
<polyline fill="none" stroke="black" points="1028,-50.4 1081.16,-50.4 "/>
<text text-anchor="middle" x="1054.58" y="-32.4" font-family="Times,serif" font-size="14.00">5</text>
<polyline fill="none" stroke="black" points="1028,-25.6 1081.16,-25.6 "/>
<text text-anchor="middle" x="1054.58" y="-7.6" font-family="Times,serif" font-size="14.00">“ just”</text>
</g>
<!-- 81847318&#45;&gt;98179958 -->
<g id="edge24" class="edge"><title>81847318:right&#45;&gt;98179958:type</title>
<path fill="none" stroke="black" d="M1021,-112C1021,-94.1186 1043.45,-96.0575 1051.86,-85.6087"/>
<polygon fill="black" stroke="black" points="1055.22,-86.5925 1055,-76 1048.57,-84.4195 1055.22,-86.5925"/>
</g>
<!-- 91726269 -->
<g id="node31" class="node"><title>91726269</title>
<polygon fill="none" stroke="black" points="1100,-0.8 1100,-75.2 1154,-75.2 1154,-0.8 1100,-0.8"/>
<text text-anchor="middle" x="1126.96" y="-57.2" font-family="Times,serif" font-size="14.00">leaf</text>
<polyline fill="none" stroke="black" points="1100,-50.4 1153.92,-50.4 "/>
<text text-anchor="middle" x="1126.96" y="-32.4" font-family="Times,serif" font-size="14.00">4</text>
<polyline fill="none" stroke="black" points="1100,-25.6 1153.92,-25.6 "/>
<text text-anchor="middle" x="1126.96" y="-7.6" font-family="Times,serif" font-size="14.00">“ let”</text>
</g>
<!-- 4232387&#45;&gt;91726269 -->
<g id="edge26" class="edge"><title>4232387:left&#45;&gt;91726269:type</title>
<path fill="none" stroke="black" d="M1127,-112C1127,-100 1127,-94.75 1127,-86.125"/>
<polygon fill="black" stroke="black" points="1130.5,-86 1127,-76 1123.5,-86 1130.5,-86"/>
</g>
<!-- 45485964 -->
<g id="node32" class="node"><title>45485964</title>
<polygon fill="none" stroke="black" points="1172,-0.8 1172,-75.2 1226,-75.2 1226,-0.8 1172,-0.8"/>
<text text-anchor="middle" x="1198.85" y="-57.2" font-family="Times,serif" font-size="14.00">leaf</text>
<polyline fill="none" stroke="black" points="1172,-50.4 1225.71,-50.4 "/>
<text text-anchor="middle" x="1198.85" y="-32.4" font-family="Times,serif" font-size="14.00">3</text>
<polyline fill="none" stroke="black" points="1172,-25.6 1225.71,-25.6 "/>
<text text-anchor="middle" x="1198.85" y="-7.6" font-family="Times,serif" font-size="14.00">“ it”</text>
</g>
<!-- 4232387&#45;&gt;45485964 -->
<g id="edge27" class="edge"><title>4232387:right&#45;&gt;45485964:type</title>
<path fill="none" stroke="black" d="M1165,-112C1165,-94.1186 1187.45,-96.0575 1195.86,-85.6087"/>
<polygon fill="black" stroke="black" points="1199.22,-86.5925 1199,-76 1192.57,-84.4195 1199.22,-86.5925"/>
</g>
<!-- 58483489 -->
<g id="node34" class="node"><title>58483489</title>
<polygon fill="#e3e3e3" stroke="black" points="1086.45,-336.8 1086.45,-411.2 1163.55,-411.2 1163.55,-336.8 1086.45,-336.8"/>
<text text-anchor="middle" x="1125" y="-393.2" font-family="Times,serif" font-size="14.00">concat</text>
<polyline fill="none" stroke="black" points="1086.45,-386.4 1163.55,-386.4 "/>
<text text-anchor="middle" x="1125" y="-368.4" font-family="Times,serif" font-size="14.00">14</text>
<polyline fill="none" stroke="black" points="1086.45,-361.6 1163.55,-361.6 "/>
<text text-anchor="middle" x="1103.78" y="-343.6" font-family="Times,serif" font-size="14.00">left</text>
<polyline fill="none" stroke="black" points="1121.11,-336.8 1121.11,-361.6 "/>
<text text-anchor="middle" x="1142.33" y="-343.6" font-family="Times,serif" font-size="14.00">right</text>
</g>
<!-- 28426592&#45;&gt;58483489 -->
<g id="edge34" class="edge"><title>28426592:left&#45;&gt;58483489:type</title>
<path fill="none" stroke="black" d="M1125,-448C1125,-436 1125,-430.75 1125,-422.125"/>
<polygon fill="black" stroke="black" points="1128.5,-422 1125,-412 1121.5,-422 1128.5,-422"/>
</g>
<!-- 27882606 -->
<g id="node37" class="node"><title>27882606</title>
<polygon fill="#e3e3e3" stroke="black" points="1229.45,-336.8 1229.45,-411.2 1306.55,-411.2 1306.55,-336.8 1229.45,-336.8"/>
<text text-anchor="middle" x="1268" y="-393.2" font-family="Times,serif" font-size="14.00">concat</text>
<polyline fill="none" stroke="black" points="1229.45,-386.4 1306.55,-386.4 "/>
<text text-anchor="middle" x="1268" y="-368.4" font-family="Times,serif" font-size="14.00">10</text>
<polyline fill="none" stroke="black" points="1229.45,-361.6 1306.55,-361.6 "/>
<text text-anchor="middle" x="1246.78" y="-343.6" font-family="Times,serif" font-size="14.00">left</text>
<polyline fill="none" stroke="black" points="1264.11,-336.8 1264.11,-361.6 "/>
<text text-anchor="middle" x="1285.33" y="-343.6" font-family="Times,serif" font-size="14.00">right</text>
</g>
<!-- 28426592&#45;&gt;27882606 -->
<g id="edge37" class="edge"><title>28426592:right&#45;&gt;27882606:type</title>
<path fill="none" stroke="black" d="M1186,-461C1215.25,-461 1199.82,-413.106 1218.25,-401.507"/>
<polygon fill="black" stroke="black" points="1219.19,-404.88 1228,-399 1217.44,-398.1 1219.19,-404.88"/>
</g>
<!-- 5727544 -->
<g id="node35" class="node"><title>5727544</title>
<polygon fill="none" stroke="black" points="1055,-224.8 1055,-299.2 1109,-299.2 1109,-224.8 1055,-224.8"/>
<text text-anchor="middle" x="1081.68" y="-281.2" font-family="Times,serif" font-size="14.00">leaf</text>
<polyline fill="none" stroke="black" points="1055,-274.4 1108.37,-274.4 "/>
<text text-anchor="middle" x="1081.68" y="-256.4" font-family="Times,serif" font-size="14.00">5</text>
<polyline fill="none" stroke="black" points="1055,-249.6 1108.37,-249.6 "/>
<text text-anchor="middle" x="1081.68" y="-231.6" font-family="Times,serif" font-size="14.00">“ roll”</text>
</g>
<!-- 58483489&#45;&gt;5727544 -->
<g id="edge32" class="edge"><title>58483489:left&#45;&gt;5727544:type</title>
<path fill="none" stroke="black" d="M1104,-336C1104,-321.351 1090.57,-319.063 1084.7,-309.822"/>
<polygon fill="black" stroke="black" points="1088.02,-308.716 1082,-300 1081.27,-310.57 1088.02,-308.716"/>
</g>
<!-- 41405269 -->
<g id="node36" class="node"><title>41405269</title>
<polygon fill="none" stroke="black" points="1127.04,-224.8 1127.04,-299.2 1200.96,-299.2 1200.96,-224.8 1127.04,-224.8"/>
<text text-anchor="middle" x="1164" y="-281.2" font-family="Times,serif" font-size="14.00">leaf</text>
<polyline fill="none" stroke="black" points="1127.04,-274.4 1200.96,-274.4 "/>
<text text-anchor="middle" x="1164" y="-256.4" font-family="Times,serif" font-size="14.00">9</text>
<polyline fill="none" stroke="black" points="1127.04,-249.6 1200.96,-249.6 "/>
<text text-anchor="middle" x="1164" y="-231.6" font-family="Times,serif" font-size="14.00">“ straight”</text>
</g>
<!-- 58483489&#45;&gt;41405269 -->
<g id="edge33" class="edge"><title>58483489:right&#45;&gt;41405269:type</title>
<path fill="none" stroke="black" d="M1142,-336C1142,-321.351 1155.43,-319.063 1161.3,-309.822"/>
<polygon fill="black" stroke="black" points="1164.73,-310.57 1164,-300 1157.98,-308.716 1164.73,-310.57"/>
</g>
<!-- 52524796 -->
<g id="node38" class="node"><title>52524796</title>
<polygon fill="none" stroke="black" points="1218.6,-224.8 1218.6,-299.2 1275.4,-299.2 1275.4,-224.8 1218.6,-224.8"/>
<text text-anchor="middle" x="1247" y="-281.2" font-family="Times,serif" font-size="14.00">leaf</text>
<polyline fill="none" stroke="black" points="1218.6,-274.4 1275.4,-274.4 "/>
<text text-anchor="middle" x="1247" y="-256.4" font-family="Times,serif" font-size="14.00">5</text>
<polyline fill="none" stroke="black" points="1218.6,-249.6 1275.4,-249.6 "/>
<text text-anchor="middle" x="1247" y="-231.6" font-family="Times,serif" font-size="14.00">“ over”</text>
</g>
<!-- 27882606&#45;&gt;52524796 -->
<g id="edge35" class="edge"><title>27882606:left&#45;&gt;52524796:type</title>
<path fill="none" stroke="black" d="M1247,-336C1247,-324 1247,-318.75 1247,-310.125"/>
<polygon fill="black" stroke="black" points="1250.5,-310 1247,-300 1243.5,-310 1250.5,-310"/>
</g>
<!-- 18128108 -->
<g id="node39" class="node"><title>18128108</title>
<polygon fill="none" stroke="black" points="1293.43,-224.8 1293.43,-299.2 1352.57,-299.2 1352.57,-224.8 1293.43,-224.8"/>
<text text-anchor="middle" x="1323" y="-281.2" font-family="Times,serif" font-size="14.00">leaf</text>
<polyline fill="none" stroke="black" points="1293.43,-274.4 1352.57,-274.4 "/>
<text text-anchor="middle" x="1323" y="-256.4" font-family="Times,serif" font-size="14.00">5</text>
<polyline fill="none" stroke="black" points="1293.43,-249.6 1352.57,-249.6 "/>
<text text-anchor="middle" x="1323" y="-231.6" font-family="Times,serif" font-size="14.00">“ you?”</text>
</g>
<!-- 27882606&#45;&gt;18128108 -->
<g id="edge36" class="edge"><title>27882606:right&#45;&gt;18128108:type</title>
<path fill="none" stroke="black" d="M1285,-336C1285,-328.18 1282.98,-306.713 1285.76,-294.956"/>
<polygon fill="black" stroke="black" points="1288.58,-297.029 1292,-287 1283.08,-292.71 1288.58,-297.029"/>
</g>
<!-- rope -->
<g id="node40" class="node"><title>rope</title>
<ellipse fill="darkseagreen" stroke="black" cx="999" cy="-690" rx="28.2939" ry="18"/>
<text text-anchor="middle" x="999" y="-684.4" font-family="Times,serif" font-size="14.00">rope</text>
</g>
<!-- rope&#45;&gt;97465739 -->
<g id="edge39" class="edge"><title>rope&#45;&gt;97465739</title>
<path fill="none" stroke="black" d="M999,-671.647C999,-664.07 999,-654.785 999,-645.418"/>
<polygon fill="black" stroke="black" points="1002.5,-645.298 999,-635.298 995.5,-645.298 1002.5,-645.298"/>
</g>
</g>
</svg>
