<?xml version="1.0" encoding="UTF-8" standalone="no"?>
<!DOCTYPE svg PUBLIC "-//W3C//DTD SVG 1.1//EN"
 "http://www.w3.org/Graphics/SVG/1.1/DTD/svg11.dtd">
<!-- Generated by graphviz version 2.32.0 (20130807.1552)
 -->
<!-- Title: bulldozer Pages: 1 -->
<svg width="962pt" height="2284pt"
 viewBox="0.00 0.00 962.00 2284.00" xmlns="http://www.w3.org/2000/svg" xmlns:xlink="http://www.w3.org/1999/xlink">
<g id="graph0" class="graph" transform="scale(1 1) rotate(0) translate(4 2280)">
<title>bulldozer</title>
<polygon fill="white" stroke="white" points="-4,5 -4,-2280 959,-2280 959,5 -4,5"/>
<!-- 87435795 -->
<g id="node1" class="node"><title>87435795</title>
<polygon fill="#e3e3e3" stroke="black" points="845.452,-2128.8 845.452,-2203.2 922.548,-2203.2 922.548,-2128.8 845.452,-2128.8"/>
<text text-anchor="middle" x="884" y="-2185.2" font-family="Times,serif" font-size="14.00">concat</text>
<polyline fill="none" stroke="black" points="845.452,-2178.4 922.548,-2178.4 "/>
<text text-anchor="middle" x="884" y="-2160.4" font-family="Times,serif" font-size="14.00">102</text>
<polyline fill="none" stroke="black" points="845.452,-2153.6 922.548,-2153.6 "/>
<text text-anchor="middle" x="862.779" y="-2135.6" font-family="Times,serif" font-size="14.00">left</text>
<polyline fill="none" stroke="black" points="880.107,-2128.8 880.107,-2153.6 "/>
<text text-anchor="middle" x="901.328" y="-2135.6" font-family="Times,serif" font-size="14.00">right</text>
</g>
<!-- 52159805 -->
<g id="node2" class="node"><title>52159805</title>
<polygon fill="#e3e3e3" stroke="black" points="800.452,-2016.8 800.452,-2091.2 877.548,-2091.2 877.548,-2016.8 800.452,-2016.8"/>
<text text-anchor="middle" x="839" y="-2073.2" font-family="Times,serif" font-size="14.00">concat</text>
<polyline fill="none" stroke="black" points="800.452,-2066.4 877.548,-2066.4 "/>
<text text-anchor="middle" x="839" y="-2048.4" font-family="Times,serif" font-size="14.00">97</text>
<polyline fill="none" stroke="black" points="800.452,-2041.6 877.548,-2041.6 "/>
<text text-anchor="middle" x="817.779" y="-2023.6" font-family="Times,serif" font-size="14.00">left</text>
<polyline fill="none" stroke="black" points="835.107,-2016.8 835.107,-2041.6 "/>
<text text-anchor="middle" x="856.328" y="-2023.6" font-family="Times,serif" font-size="14.00">right</text>
</g>
<!-- 87435795&#45;&gt;52159805 -->
<g id="edge37" class="edge"><title>87435795:left&#45;&gt;52159805:type</title>
<path fill="none" stroke="black" d="M863,-2128C863,-2112.83 848.057,-2111.16 841.753,-2101.68"/>
<polygon fill="black" stroke="black" points="845.102,-2100.66 839,-2092 838.369,-2102.58 845.102,-2100.66"/>
</g>
<!-- 18128108 -->
<g id="node39" class="node"><title>18128108</title>
<polygon fill="none" stroke="black" points="895.429,-2016.8 895.429,-2091.2 954.571,-2091.2 954.571,-2016.8 895.429,-2016.8"/>
<text text-anchor="middle" x="925" y="-2073.2" font-family="Times,serif" font-size="14.00">leaf</text>
<polyline fill="none" stroke="black" points="895.429,-2066.4 954.571,-2066.4 "/>
<text text-anchor="middle" x="925" y="-2048.4" font-family="Times,serif" font-size="14.00">5</text>
<polyline fill="none" stroke="black" points="895.429,-2041.6 954.571,-2041.6 "/>
<text text-anchor="middle" x="925" y="-2023.6" font-family="Times,serif" font-size="14.00">“ you?”</text>
</g>
<!-- 87435795&#45;&gt;18128108 -->
<g id="edge38" class="edge"><title>87435795:right&#45;&gt;18128108:type</title>
<path fill="none" stroke="black" d="M901,-2128C901,-2112.83 915.943,-2111.16 922.247,-2101.68"/>
<polygon fill="black" stroke="black" points="925.631,-2102.58 925,-2092 918.898,-2100.66 925.631,-2102.58"/>
</g>
<!-- 10042822 -->
<g id="node3" class="node"><title>10042822</title>
<polygon fill="#e3e3e3" stroke="black" points="756.452,-1904.8 756.452,-1979.2 833.548,-1979.2 833.548,-1904.8 756.452,-1904.8"/>
<text text-anchor="middle" x="795" y="-1961.2" font-family="Times,serif" font-size="14.00">concat</text>
<polyline fill="none" stroke="black" points="756.452,-1954.4 833.548,-1954.4 "/>
<text text-anchor="middle" x="795" y="-1936.4" font-family="Times,serif" font-size="14.00">92</text>
<polyline fill="none" stroke="black" points="756.452,-1929.6 833.548,-1929.6 "/>
<text text-anchor="middle" x="773.779" y="-1911.6" font-family="Times,serif" font-size="14.00">left</text>
<polyline fill="none" stroke="black" points="791.107,-1904.8 791.107,-1929.6 "/>
<text text-anchor="middle" x="812.328" y="-1911.6" font-family="Times,serif" font-size="14.00">right</text>
</g>
<!-- 52159805&#45;&gt;10042822 -->
<g id="edge35" class="edge"><title>52159805:left&#45;&gt;10042822:type</title>
<path fill="none" stroke="black" d="M818,-2016C818,-2001.17 803.962,-1999.13 797.82,-1989.89"/>
<polygon fill="black" stroke="black" points="801.108,-1988.66 795,-1980 794.377,-1990.58 801.108,-1988.66"/>
</g>
<!-- 52524796 -->
<g id="node38" class="node"><title>52524796</title>
<polygon fill="none" stroke="black" points="851.598,-1904.8 851.598,-1979.2 908.402,-1979.2 908.402,-1904.8 851.598,-1904.8"/>
<text text-anchor="middle" x="880" y="-1961.2" font-family="Times,serif" font-size="14.00">leaf</text>
<polyline fill="none" stroke="black" points="851.598,-1954.4 908.402,-1954.4 "/>
<text text-anchor="middle" x="880" y="-1936.4" font-family="Times,serif" font-size="14.00">5</text>
<polyline fill="none" stroke="black" points="851.598,-1929.6 908.402,-1929.6 "/>
<text text-anchor="middle" x="880" y="-1911.6" font-family="Times,serif" font-size="14.00">“ over”</text>
</g>
<!-- 52159805&#45;&gt;52524796 -->
<g id="edge36" class="edge"><title>52159805:right&#45;&gt;52524796:type</title>
<path fill="none" stroke="black" d="M856,-2016C856,-2000.83 870.943,-1999.16 877.247,-1989.68"/>
<polygon fill="black" stroke="black" points="880.631,-1990.58 880,-1980 873.898,-1988.66 880.631,-1990.58"/>
</g>
<!-- 120913464 -->
<g id="node4" class="node"><title>120913464</title>
<polygon fill="#e3e3e3" stroke="black" points="707.452,-1792.8 707.452,-1867.2 784.548,-1867.2 784.548,-1792.8 707.452,-1792.8"/>
<text text-anchor="middle" x="746" y="-1849.2" font-family="Times,serif" font-size="14.00">concat</text>
<polyline fill="none" stroke="black" points="707.452,-1842.4 784.548,-1842.4 "/>
<text text-anchor="middle" x="746" y="-1824.4" font-family="Times,serif" font-size="14.00">83</text>
<polyline fill="none" stroke="black" points="707.452,-1817.6 784.548,-1817.6 "/>
<text text-anchor="middle" x="724.779" y="-1799.6" font-family="Times,serif" font-size="14.00">left</text>
<polyline fill="none" stroke="black" points="742.107,-1792.8 742.107,-1817.6 "/>
<text text-anchor="middle" x="763.328" y="-1799.6" font-family="Times,serif" font-size="14.00">right</text>
</g>
<!-- 10042822&#45;&gt;120913464 -->
<g id="edge33" class="edge"><title>10042822:left&#45;&gt;120913464:type</title>
<path fill="none" stroke="black" d="M774,-1904C774,-1888.76 789.902,-1871.6 793.049,-1862.17"/>
<polygon fill="black" stroke="black" points="795.506,-1859.68 786,-1855 790.514,-1864.59 795.506,-1859.68"/>
</g>
<!-- 41405269 -->
<g id="node37" class="node"><title>41405269</title>
<polygon fill="none" stroke="black" points="803.04,-1792.8 803.04,-1867.2 876.96,-1867.2 876.96,-1792.8 803.04,-1792.8"/>
<text text-anchor="middle" x="840" y="-1849.2" font-family="Times,serif" font-size="14.00">leaf</text>
<polyline fill="none" stroke="black" points="803.04,-1842.4 876.96,-1842.4 "/>
<text text-anchor="middle" x="840" y="-1824.4" font-family="Times,serif" font-size="14.00">9</text>
<polyline fill="none" stroke="black" points="803.04,-1817.6 876.96,-1817.6 "/>
<text text-anchor="middle" x="840" y="-1799.6" font-family="Times,serif" font-size="14.00">“ straight”</text>
</g>
<!-- 10042822&#45;&gt;41405269 -->
<g id="edge34" class="edge"><title>10042822:right&#45;&gt;41405269:type</title>
<path fill="none" stroke="black" d="M812,-1904C812,-1887.85 829.78,-1887.45 837.004,-1877.7"/>
<polygon fill="black" stroke="black" points="840.391,-1878.59 840,-1868 833.704,-1876.52 840.391,-1878.59"/>
</g>
<!-- 9999337 -->
<g id="node5" class="node"><title>9999337</title>
<polygon fill="#e3e3e3" stroke="black" points="663.452,-1680.8 663.452,-1755.2 740.548,-1755.2 740.548,-1680.8 663.452,-1680.8"/>
<text text-anchor="middle" x="702" y="-1737.2" font-family="Times,serif" font-size="14.00">concat</text>
<polyline fill="none" stroke="black" points="663.452,-1730.4 740.548,-1730.4 "/>
<text text-anchor="middle" x="702" y="-1712.4" font-family="Times,serif" font-size="14.00">78</text>
<polyline fill="none" stroke="black" points="663.452,-1705.6 740.548,-1705.6 "/>
<text text-anchor="middle" x="680.779" y="-1687.6" font-family="Times,serif" font-size="14.00">left</text>
<polyline fill="none" stroke="black" points="698.107,-1680.8 698.107,-1705.6 "/>
<text text-anchor="middle" x="719.328" y="-1687.6" font-family="Times,serif" font-size="14.00">right</text>
</g>
<!-- 120913464&#45;&gt;9999337 -->
<g id="edge31" class="edge"><title>120913464:left&#45;&gt;9999337:type</title>
<path fill="none" stroke="black" d="M725,-1792C725,-1777.17 710.962,-1775.13 704.82,-1765.89"/>
<polygon fill="black" stroke="black" points="708.108,-1764.66 702,-1756 701.377,-1766.58 708.108,-1764.66"/>
</g>
<!-- 5727544 -->
<g id="node36" class="node"><title>5727544</title>
<polygon fill="none" stroke="black" points="759,-1680.8 759,-1755.2 813,-1755.2 813,-1680.8 759,-1680.8"/>
<text text-anchor="middle" x="785.685" y="-1737.2" font-family="Times,serif" font-size="14.00">leaf</text>
<polyline fill="none" stroke="black" points="759,-1730.4 812.369,-1730.4 "/>
<text text-anchor="middle" x="785.685" y="-1712.4" font-family="Times,serif" font-size="14.00">5</text>
<polyline fill="none" stroke="black" points="759,-1705.6 812.369,-1705.6 "/>
<text text-anchor="middle" x="785.685" y="-1687.6" font-family="Times,serif" font-size="14.00">“ roll”</text>
</g>
<!-- 120913464&#45;&gt;5727544 -->
<g id="edge32" class="edge"><title>120913464:right&#45;&gt;5727544:type</title>
<path fill="none" stroke="black" d="M763,-1792C763,-1777.17 777.038,-1775.13 783.18,-1765.89"/>
<polygon fill="black" stroke="black" points="786.623,-1766.58 786,-1756 779.892,-1764.66 786.623,-1766.58"/>
</g>
<!-- 86927190 -->
<g id="node6" class="node"><title>86927190</title>
<polygon fill="#e3e3e3" stroke="black" points="619.452,-1568.8 619.452,-1643.2 696.548,-1643.2 696.548,-1568.8 619.452,-1568.8"/>
<text text-anchor="middle" x="658" y="-1625.2" font-family="Times,serif" font-size="14.00">concat</text>
<polyline fill="none" stroke="black" points="619.452,-1618.4 696.548,-1618.4 "/>
<text text-anchor="middle" x="658" y="-1600.4" font-family="Times,serif" font-size="14.00">75</text>
<polyline fill="none" stroke="black" points="619.452,-1593.6 696.548,-1593.6 "/>
<text text-anchor="middle" x="636.779" y="-1575.6" font-family="Times,serif" font-size="14.00">left</text>
<polyline fill="none" stroke="black" points="654.107,-1568.8 654.107,-1593.6 "/>
<text text-anchor="middle" x="675.328" y="-1575.6" font-family="Times,serif" font-size="14.00">right</text>
</g>
<!-- 9999337&#45;&gt;86927190 -->
<g id="edge29" class="edge"><title>9999337:left&#45;&gt;86927190:type</title>
<path fill="none" stroke="black" d="M681,-1680C681,-1665.17 666.962,-1663.13 660.82,-1653.89"/>
<polygon fill="black" stroke="black" points="664.108,-1652.66 658,-1644 657.377,-1654.58 664.108,-1652.66"/>
</g>
<!-- 45485964 -->
<g id="node35" class="node"><title>45485964</title>
<polygon fill="none" stroke="black" points="715,-1568.8 715,-1643.2 769,-1643.2 769,-1568.8 715,-1568.8"/>
<text text-anchor="middle" x="741.854" y="-1625.2" font-family="Times,serif" font-size="14.00">leaf</text>
<polyline fill="none" stroke="black" points="715,-1618.4 768.707,-1618.4 "/>
<text text-anchor="middle" x="741.854" y="-1600.4" font-family="Times,serif" font-size="14.00">3</text>
<polyline fill="none" stroke="black" points="715,-1593.6 768.707,-1593.6 "/>
<text text-anchor="middle" x="741.854" y="-1575.6" font-family="Times,serif" font-size="14.00">“ it”</text>
</g>
<!-- 9999337&#45;&gt;45485964 -->
<g id="edge30" class="edge"><title>9999337:right&#45;&gt;45485964:type</title>
<path fill="none" stroke="black" d="M719,-1680C719,-1665.17 733.038,-1663.13 739.18,-1653.89"/>
<polygon fill="black" stroke="black" points="742.623,-1654.58 742,-1644 735.892,-1652.66 742.623,-1654.58"/>
</g>
<!-- 101386642 -->
<g id="node7" class="node"><title>101386642</title>
<polygon fill="#e3e3e3" stroke="black" points="575.452,-1456.8 575.452,-1531.2 652.548,-1531.2 652.548,-1456.8 575.452,-1456.8"/>
<text text-anchor="middle" x="614" y="-1513.2" font-family="Times,serif" font-size="14.00">concat</text>
<polyline fill="none" stroke="black" points="575.452,-1506.4 652.548,-1506.4 "/>
<text text-anchor="middle" x="614" y="-1488.4" font-family="Times,serif" font-size="14.00">71</text>
<polyline fill="none" stroke="black" points="575.452,-1481.6 652.548,-1481.6 "/>
<text text-anchor="middle" x="592.779" y="-1463.6" font-family="Times,serif" font-size="14.00">left</text>
<polyline fill="none" stroke="black" points="610.107,-1456.8 610.107,-1481.6 "/>
<text text-anchor="middle" x="631.328" y="-1463.6" font-family="Times,serif" font-size="14.00">right</text>
</g>
<!-- 86927190&#45;&gt;101386642 -->
<g id="edge27" class="edge"><title>86927190:left&#45;&gt;101386642:type</title>
<path fill="none" stroke="black" d="M637,-1568C637,-1553.17 622.962,-1551.13 616.82,-1541.89"/>
<polygon fill="black" stroke="black" points="620.108,-1540.66 614,-1532 613.377,-1542.58 620.108,-1540.66"/>
</g>
<!-- 91726269 -->
<g id="node34" class="node"><title>91726269</title>
<polygon fill="none" stroke="black" points="671,-1456.8 671,-1531.2 725,-1531.2 725,-1456.8 671,-1456.8"/>
<text text-anchor="middle" x="697.96" y="-1513.2" font-family="Times,serif" font-size="14.00">leaf</text>
<polyline fill="none" stroke="black" points="671,-1506.4 724.921,-1506.4 "/>
<text text-anchor="middle" x="697.96" y="-1488.4" font-family="Times,serif" font-size="14.00">4</text>
<polyline fill="none" stroke="black" points="671,-1481.6 724.921,-1481.6 "/>
<text text-anchor="middle" x="697.96" y="-1463.6" font-family="Times,serif" font-size="14.00">“ let”</text>
</g>
<!-- 86927190&#45;&gt;91726269 -->
<g id="edge28" class="edge"><title>86927190:right&#45;&gt;91726269:type</title>
<path fill="none" stroke="black" d="M675,-1568C675,-1553.17 689.038,-1551.13 695.18,-1541.89"/>
<polygon fill="black" stroke="black" points="698.623,-1542.58 698,-1532 691.892,-1540.66 698.623,-1542.58"/>
</g>
<!-- 63307228 -->
<g id="node8" class="node"><title>63307228</title>
<polygon fill="#e3e3e3" stroke="black" points="531.452,-1344.8 531.452,-1419.2 608.548,-1419.2 608.548,-1344.8 531.452,-1344.8"/>
<text text-anchor="middle" x="570" y="-1401.2" font-family="Times,serif" font-size="14.00">concat</text>
<polyline fill="none" stroke="black" points="531.452,-1394.4 608.548,-1394.4 "/>
<text text-anchor="middle" x="570" y="-1376.4" font-family="Times,serif" font-size="14.00">66</text>
<polyline fill="none" stroke="black" points="531.452,-1369.6 608.548,-1369.6 "/>
<text text-anchor="middle" x="548.779" y="-1351.6" font-family="Times,serif" font-size="14.00">left</text>
<polyline fill="none" stroke="black" points="566.107,-1344.8 566.107,-1369.6 "/>
<text text-anchor="middle" x="587.328" y="-1351.6" font-family="Times,serif" font-size="14.00">right</text>
</g>
<!-- 101386642&#45;&gt;63307228 -->
<g id="edge25" class="edge"><title>101386642:left&#45;&gt;63307228:type</title>
<path fill="none" stroke="black" d="M593,-1456C593,-1441.17 578.962,-1439.13 572.82,-1429.89"/>
<polygon fill="black" stroke="black" points="576.108,-1428.66 570,-1420 569.377,-1430.58 576.108,-1428.66"/>
</g>
<!-- 98179958 -->
<g id="node33" class="node"><title>98179958</title>
<polygon fill="none" stroke="black" points="627,-1344.8 627,-1419.2 681,-1419.2 681,-1344.8 627,-1344.8"/>
<text text-anchor="middle" x="653.578" y="-1401.2" font-family="Times,serif" font-size="14.00">leaf</text>
<polyline fill="none" stroke="black" points="627,-1394.4 680.155,-1394.4 "/>
<text text-anchor="middle" x="653.578" y="-1376.4" font-family="Times,serif" font-size="14.00">5</text>
<polyline fill="none" stroke="black" points="627,-1369.6 680.155,-1369.6 "/>
<text text-anchor="middle" x="653.578" y="-1351.6" font-family="Times,serif" font-size="14.00">“ just”</text>
</g>
<!-- 101386642&#45;&gt;98179958 -->
<g id="edge26" class="edge"><title>101386642:right&#45;&gt;98179958:type</title>
<path fill="none" stroke="black" d="M631,-1456C631,-1441.17 645.038,-1439.13 651.18,-1429.89"/>
<polygon fill="black" stroke="black" points="654.623,-1430.58 654,-1420 647.892,-1428.66 654.623,-1430.58"/>
</g>
<!-- 95462161 -->
<g id="node9" class="node"><title>95462161</title>
<polygon fill="#e3e3e3" stroke="black" points="487.452,-1232.8 487.452,-1307.2 564.548,-1307.2 564.548,-1232.8 487.452,-1232.8"/>
<text text-anchor="middle" x="526" y="-1289.2" font-family="Times,serif" font-size="14.00">concat</text>
<polyline fill="none" stroke="black" points="487.452,-1282.4 564.548,-1282.4 "/>
<text text-anchor="middle" x="526" y="-1264.4" font-family="Times,serif" font-size="14.00">64</text>
<polyline fill="none" stroke="black" points="487.452,-1257.6 564.548,-1257.6 "/>
<text text-anchor="middle" x="504.779" y="-1239.6" font-family="Times,serif" font-size="14.00">left</text>
<polyline fill="none" stroke="black" points="522.107,-1232.8 522.107,-1257.6 "/>
<text text-anchor="middle" x="543.328" y="-1239.6" font-family="Times,serif" font-size="14.00">right</text>
</g>
<!-- 63307228&#45;&gt;95462161 -->
<g id="edge23" class="edge"><title>63307228:left&#45;&gt;95462161:type</title>
<path fill="none" stroke="black" d="M549,-1344C549,-1329.17 534.962,-1327.13 528.82,-1317.89"/>
<polygon fill="black" stroke="black" points="532.108,-1316.66 526,-1308 525.377,-1318.58 532.108,-1316.66"/>
</g>
<!-- 54316495 -->
<g id="node32" class="node"><title>54316495</title>
<polygon fill="none" stroke="black" points="583,-1232.8 583,-1307.2 637,-1307.2 637,-1232.8 583,-1232.8"/>
<text text-anchor="middle" x="609.99" y="-1289.2" font-family="Times,serif" font-size="14.00">leaf</text>
<polyline fill="none" stroke="black" points="583,-1282.4 636.979,-1282.4 "/>
<text text-anchor="middle" x="609.99" y="-1264.4" font-family="Times,serif" font-size="14.00">2</text>
<polyline fill="none" stroke="black" points="583,-1257.6 636.979,-1257.6 "/>
<text text-anchor="middle" x="609.99" y="-1239.6" font-family="Times,serif" font-size="14.00">“ I”</text>
</g>
<!-- 63307228&#45;&gt;54316495 -->
<g id="edge24" class="edge"><title>63307228:right&#45;&gt;54316495:type</title>
<path fill="none" stroke="black" d="M587,-1344C587,-1329.17 601.038,-1327.13 607.18,-1317.89"/>
<polygon fill="black" stroke="black" points="610.623,-1318.58 610,-1308 603.892,-1316.66 610.623,-1318.58"/>
</g>
<!-- 97458223 -->
<g id="node10" class="node"><title>97458223</title>
<polygon fill="#e3e3e3" stroke="black" points="443.452,-1120.8 443.452,-1195.2 520.548,-1195.2 520.548,-1120.8 443.452,-1120.8"/>
<text text-anchor="middle" x="482" y="-1177.2" font-family="Times,serif" font-size="14.00">concat</text>
<polyline fill="none" stroke="black" points="443.452,-1170.4 520.548,-1170.4 "/>
<text text-anchor="middle" x="482" y="-1152.4" font-family="Times,serif" font-size="14.00">61</text>
<polyline fill="none" stroke="black" points="443.452,-1145.6 520.548,-1145.6 "/>
<text text-anchor="middle" x="460.779" y="-1127.6" font-family="Times,serif" font-size="14.00">left</text>
<polyline fill="none" stroke="black" points="478.107,-1120.8 478.107,-1145.6 "/>
<text text-anchor="middle" x="499.328" y="-1127.6" font-family="Times,serif" font-size="14.00">right</text>
</g>
<!-- 95462161&#45;&gt;97458223 -->
<g id="edge21" class="edge"><title>95462161:left&#45;&gt;97458223:type</title>
<path fill="none" stroke="black" d="M505,-1232C505,-1217.17 490.962,-1215.13 484.82,-1205.89"/>
<polygon fill="black" stroke="black" points="488.108,-1204.66 482,-1196 481.377,-1206.58 488.108,-1204.66"/>
</g>
<!-- 55465842 -->
<g id="node31" class="node"><title>55465842</title>
<polygon fill="none" stroke="black" points="539,-1120.8 539,-1195.2 593,-1195.2 593,-1120.8 539,-1120.8"/>
<text text-anchor="middle" x="565.74" y="-1177.2" font-family="Times,serif" font-size="14.00">leaf</text>
<polyline fill="none" stroke="black" points="539,-1170.4 592.479,-1170.4 "/>
<text text-anchor="middle" x="565.74" y="-1152.4" font-family="Times,serif" font-size="14.00">3</text>
<polyline fill="none" stroke="black" points="539,-1145.6 592.479,-1145.6 "/>
<text text-anchor="middle" x="565.74" y="-1127.6" font-family="Times,serif" font-size="14.00">“ if”</text>
</g>
<!-- 95462161&#45;&gt;55465842 -->
<g id="edge22" class="edge"><title>95462161:right&#45;&gt;55465842:type</title>
<path fill="none" stroke="black" d="M543,-1232C543,-1217.17 557.038,-1215.13 563.18,-1205.89"/>
<polygon fill="black" stroke="black" points="566.623,-1206.58 566,-1196 559.892,-1204.66 566.623,-1206.58"/>
</g>
<!-- 80019585 -->
<g id="node11" class="node"><title>80019585</title>
<polygon fill="#e3e3e3" stroke="black" points="397.452,-1008.8 397.452,-1083.2 474.548,-1083.2 474.548,-1008.8 397.452,-1008.8"/>
<text text-anchor="middle" x="436" y="-1065.2" font-family="Times,serif" font-size="14.00">concat</text>
<polyline fill="none" stroke="black" points="397.452,-1058.4 474.548,-1058.4 "/>
<text text-anchor="middle" x="436" y="-1040.4" font-family="Times,serif" font-size="14.00">54</text>
<polyline fill="none" stroke="black" points="397.452,-1033.6 474.548,-1033.6 "/>
<text text-anchor="middle" x="414.779" y="-1015.6" font-family="Times,serif" font-size="14.00">left</text>
<polyline fill="none" stroke="black" points="432.107,-1008.8 432.107,-1033.6 "/>
<text text-anchor="middle" x="453.328" y="-1015.6" font-family="Times,serif" font-size="14.00">right</text>
</g>
<!-- 97458223&#45;&gt;80019585 -->
<g id="edge19" class="edge"><title>97458223:left&#45;&gt;80019585:type</title>
<path fill="none" stroke="black" d="M461,-1120C461,-1104.63 445.435,-1103.23 438.868,-1093.75"/>
<polygon fill="black" stroke="black" points="442.179,-1092.61 436,-1084 435.463,-1094.58 442.179,-1092.61"/>
</g>
<!-- 7557848 -->
<g id="node30" class="node"><title>7557848</title>
<polygon fill="none" stroke="black" points="492.835,-1008.8 492.835,-1083.2 557.165,-1083.2 557.165,-1008.8 492.835,-1008.8"/>
<text text-anchor="middle" x="525" y="-1065.2" font-family="Times,serif" font-size="14.00">leaf</text>
<polyline fill="none" stroke="black" points="492.835,-1058.4 557.165,-1058.4 "/>
<text text-anchor="middle" x="525" y="-1040.4" font-family="Times,serif" font-size="14.00">7</text>
<polyline fill="none" stroke="black" points="492.835,-1033.6 557.165,-1033.6 "/>
<text text-anchor="middle" x="525" y="-1015.6" font-family="Times,serif" font-size="14.00">“ suffer”</text>
</g>
<!-- 97458223&#45;&gt;7557848 -->
<g id="edge20" class="edge"><title>97458223:right&#45;&gt;7557848:type</title>
<path fill="none" stroke="black" d="M499,-1120C499,-1104.43 515.188,-1103.3 522.017,-1093.83"/>
<polygon fill="black" stroke="black" points="525.445,-1094.59 525,-1084 518.747,-1092.55 525.445,-1094.59"/>
</g>
<!-- 130876706 -->
<g id="node12" class="node"><title>130876706</title>
<polygon fill="#e3e3e3" stroke="black" points="350.452,-896.8 350.452,-971.2 427.548,-971.2 427.548,-896.8 350.452,-896.8"/>
<text text-anchor="middle" x="389" y="-953.2" font-family="Times,serif" font-size="14.00">concat</text>
<polyline fill="none" stroke="black" points="350.452,-946.4 427.548,-946.4 "/>
<text text-anchor="middle" x="389" y="-928.4" font-family="Times,serif" font-size="14.00">48</text>
<polyline fill="none" stroke="black" points="350.452,-921.6 427.548,-921.6 "/>
<text text-anchor="middle" x="367.779" y="-903.6" font-family="Times,serif" font-size="14.00">left</text>
<polyline fill="none" stroke="black" points="385.107,-896.8 385.107,-921.6 "/>
<text text-anchor="middle" x="406.328" y="-903.6" font-family="Times,serif" font-size="14.00">right</text>
</g>
<!-- 80019585&#45;&gt;130876706 -->
<g id="edge17" class="edge"><title>80019585:left&#45;&gt;130876706:type</title>
<path fill="none" stroke="black" d="M415,-1008C415,-992.959 431.162,-976.287 435.388,-966.782"/>
<polygon fill="black" stroke="black" points="438.05,-964.509 429,-959 432.639,-968.95 438.05,-964.509"/>
</g>
<!-- 86653836 -->
<g id="node29" class="node"><title>86653836</title>
<polygon fill="none" stroke="black" points="445.536,-896.8 445.536,-971.2 512.464,-971.2 512.464,-896.8 445.536,-896.8"/>
<text text-anchor="middle" x="479" y="-953.2" font-family="Times,serif" font-size="14.00">leaf</text>
<polyline fill="none" stroke="black" points="445.536,-946.4 512.464,-946.4 "/>
<text text-anchor="middle" x="479" y="-928.4" font-family="Times,serif" font-size="14.00">6</text>
<polyline fill="none" stroke="black" points="445.536,-921.6 512.464,-921.6 "/>
<text text-anchor="middle" x="479" y="-903.6" font-family="Times,serif" font-size="14.00">“ would”</text>
</g>
<!-- 80019585&#45;&gt;86653836 -->
<g id="edge18" class="edge"><title>80019585:right&#45;&gt;86653836:type</title>
<path fill="none" stroke="black" d="M453,-1008C453,-992.427 469.188,-991.304 476.017,-981.827"/>
<polygon fill="black" stroke="black" points="479.445,-982.585 479,-972 472.747,-980.553 479.445,-982.585"/>
</g>
<!-- 68104378 -->
<g id="node13" class="node"><title>68104378</title>
<polygon fill="#e3e3e3" stroke="black" points="299.452,-784.8 299.452,-859.2 376.548,-859.2 376.548,-784.8 299.452,-784.8"/>
<text text-anchor="middle" x="338" y="-841.2" font-family="Times,serif" font-size="14.00">concat</text>
<polyline fill="none" stroke="black" points="299.452,-834.4 376.548,-834.4 "/>
<text text-anchor="middle" x="338" y="-816.4" font-family="Times,serif" font-size="14.00">38</text>
<polyline fill="none" stroke="black" points="299.452,-809.6 376.548,-809.6 "/>
<text text-anchor="middle" x="316.779" y="-791.6" font-family="Times,serif" font-size="14.00">left</text>
<polyline fill="none" stroke="black" points="334.107,-784.8 334.107,-809.6 "/>
<text text-anchor="middle" x="355.328" y="-791.6" font-family="Times,serif" font-size="14.00">right</text>
</g>
<!-- 130876706&#45;&gt;68104378 -->
<g id="edge15" class="edge"><title>130876706:left&#45;&gt;68104378:type</title>
<path fill="none" stroke="black" d="M368,-896C368,-880.546 383.58,-862.893 385.603,-853.571"/>
<polygon fill="black" stroke="black" points="387.855,-850.891 378,-847 383.278,-856.187 387.855,-850.891"/>
</g>
<!-- 83159754 -->
<g id="node28" class="node"><title>83159754</title>
<polygon fill="none" stroke="black" points="394.602,-784.8 394.602,-859.2 479.398,-859.2 479.398,-784.8 394.602,-784.8"/>
<text text-anchor="middle" x="437" y="-841.2" font-family="Times,serif" font-size="14.00">leaf</text>
<polyline fill="none" stroke="black" points="394.602,-834.4 479.398,-834.4 "/>
<text text-anchor="middle" x="437" y="-816.4" font-family="Times,serif" font-size="14.00">10</text>
<polyline fill="none" stroke="black" points="394.602,-809.6 479.398,-809.6 "/>
<text text-anchor="middle" x="437" y="-791.6" font-family="Times,serif" font-size="14.00">“ bulldozer”</text>
</g>
<!-- 130876706&#45;&gt;83159754 -->
<g id="edge16" class="edge"><title>130876706:right&#45;&gt;83159754:type</title>
<path fill="none" stroke="black" d="M406,-896C406,-880.761 390.098,-863.6 386.951,-854.171"/>
<polygon fill="black" stroke="black" points="389.486,-856.585 394,-847 384.494,-851.678 389.486,-856.585"/>
</g>
<!-- 31382083 -->
<g id="node14" class="node"><title>31382083</title>
<polygon fill="#e3e3e3" stroke="black" points="255.452,-672.8 255.452,-747.2 332.548,-747.2 332.548,-672.8 255.452,-672.8"/>
<text text-anchor="middle" x="294" y="-729.2" font-family="Times,serif" font-size="14.00">concat</text>
<polyline fill="none" stroke="black" points="255.452,-722.4 332.548,-722.4 "/>
<text text-anchor="middle" x="294" y="-704.4" font-family="Times,serif" font-size="14.00">33</text>
<polyline fill="none" stroke="black" points="255.452,-697.6 332.548,-697.6 "/>
<text text-anchor="middle" x="272.779" y="-679.6" font-family="Times,serif" font-size="14.00">left</text>
<polyline fill="none" stroke="black" points="290.107,-672.8 290.107,-697.6 "/>
<text text-anchor="middle" x="311.328" y="-679.6" font-family="Times,serif" font-size="14.00">right</text>
</g>
<!-- 68104378&#45;&gt;31382083 -->
<g id="edge13" class="edge"><title>68104378:left&#45;&gt;31382083:type</title>
<path fill="none" stroke="black" d="M317,-784C317,-769.167 302.962,-767.126 296.82,-757.89"/>
<polygon fill="black" stroke="black" points="300.108,-756.657 294,-748 293.377,-758.576 300.108,-756.657"/>
</g>
<!-- 3059071 -->
<g id="node27" class="node"><title>3059071</title>
<polygon fill="none" stroke="black" points="351,-672.8 351,-747.2 405,-747.2 405,-672.8 351,-672.8"/>
<text text-anchor="middle" x="377.96" y="-729.2" font-family="Times,serif" font-size="14.00">leaf</text>
<polyline fill="none" stroke="black" points="351,-722.4 404.921,-722.4 "/>
<text text-anchor="middle" x="377.96" y="-704.4" font-family="Times,serif" font-size="14.00">5</text>
<polyline fill="none" stroke="black" points="351,-697.6 404.921,-697.6 "/>
<text text-anchor="middle" x="377.96" y="-679.6" font-family="Times,serif" font-size="14.00">“ that”</text>
</g>
<!-- 68104378&#45;&gt;3059071 -->
<g id="edge14" class="edge"><title>68104378:right&#45;&gt;3059071:type</title>
<path fill="none" stroke="black" d="M355,-784C355,-769.167 369.038,-767.126 375.18,-757.89"/>
<polygon fill="black" stroke="black" points="378.623,-758.576 378,-748 371.892,-756.657 378.623,-758.576"/>
</g>
<!-- 93425152 -->
<g id="node15" class="node"><title>93425152</title>
<polygon fill="#e3e3e3" stroke="black" points="206.452,-560.8 206.452,-635.2 283.548,-635.2 283.548,-560.8 206.452,-560.8"/>
<text text-anchor="middle" x="245" y="-617.2" font-family="Times,serif" font-size="14.00">concat</text>
<polyline fill="none" stroke="black" points="206.452,-610.4 283.548,-610.4 "/>
<text text-anchor="middle" x="245" y="-592.4" font-family="Times,serif" font-size="14.00">26</text>
<polyline fill="none" stroke="black" points="206.452,-585.6 283.548,-585.6 "/>
<text text-anchor="middle" x="223.779" y="-567.6" font-family="Times,serif" font-size="14.00">left</text>
<polyline fill="none" stroke="black" points="241.107,-560.8 241.107,-585.6 "/>
<text text-anchor="middle" x="262.328" y="-567.6" font-family="Times,serif" font-size="14.00">right</text>
</g>
<!-- 31382083&#45;&gt;93425152 -->
<g id="edge11" class="edge"><title>31382083:left&#45;&gt;93425152:type</title>
<path fill="none" stroke="black" d="M273,-672C273,-664.468 283.478,-644.938 286.953,-632.932"/>
<polygon fill="black" stroke="black" points="290.364,-632.137 285,-623 283.496,-633.488 290.364,-632.137"/>
</g>
<!-- 108631001 -->
<g id="node26" class="node"><title>108631001</title>
<polygon fill="none" stroke="black" points="301.271,-560.8 301.271,-635.2 376.729,-635.2 376.729,-560.8 301.271,-560.8"/>
<text text-anchor="middle" x="339" y="-617.2" font-family="Times,serif" font-size="14.00">leaf</text>
<polyline fill="none" stroke="black" points="301.271,-610.4 376.729,-610.4 "/>
<text text-anchor="middle" x="339" y="-592.4" font-family="Times,serif" font-size="14.00">7</text>
<polyline fill="none" stroke="black" points="301.271,-585.6 376.729,-585.6 "/>
<text text-anchor="middle" x="339" y="-567.6" font-family="Times,serif" font-size="14.00">“ damage”</text>
</g>
<!-- 31382083&#45;&gt;108631001 -->
<g id="edge12" class="edge"><title>31382083:right&#45;&gt;108631001:type</title>
<path fill="none" stroke="black" d="M311,-672C311,-655.848 328.78,-655.449 336.004,-645.697"/>
<polygon fill="black" stroke="black" points="339.391,-646.588 339,-636 332.704,-644.521 339.391,-646.588"/>
</g>
<!-- 7751630 -->
<g id="node16" class="node"><title>7751630</title>
<polygon fill="#e3e3e3" stroke="black" points="160.452,-448.8 160.452,-523.2 237.548,-523.2 237.548,-448.8 160.452,-448.8"/>
<text text-anchor="middle" x="199" y="-505.2" font-family="Times,serif" font-size="14.00">concat</text>
<polyline fill="none" stroke="black" points="160.452,-498.4 237.548,-498.4 "/>
<text text-anchor="middle" x="199" y="-480.4" font-family="Times,serif" font-size="14.00">21</text>
<polyline fill="none" stroke="black" points="160.452,-473.6 237.548,-473.6 "/>
<text text-anchor="middle" x="177.779" y="-455.6" font-family="Times,serif" font-size="14.00">left</text>
<polyline fill="none" stroke="black" points="195.107,-448.8 195.107,-473.6 "/>
<text text-anchor="middle" x="216.328" y="-455.6" font-family="Times,serif" font-size="14.00">right</text>
</g>
<!-- 93425152&#45;&gt;7751630 -->
<g id="edge9" class="edge"><title>93425152:left&#45;&gt;7751630:type</title>
<path fill="none" stroke="black" d="M224,-560C224,-544.629 208.435,-543.23 201.868,-533.753"/>
<polygon fill="black" stroke="black" points="205.179,-532.606 199,-524 198.463,-534.581 205.179,-532.606"/>
</g>
<!-- 4575007 -->
<g id="node25" class="node"><title>4575007</title>
<polygon fill="none" stroke="black" points="255.484,-448.8 255.484,-523.2 318.516,-523.2 318.516,-448.8 255.484,-448.8"/>
<text text-anchor="middle" x="287" y="-505.2" font-family="Times,serif" font-size="14.00">leaf</text>
<polyline fill="none" stroke="black" points="255.484,-498.4 318.516,-498.4 "/>
<text text-anchor="middle" x="287" y="-480.4" font-family="Times,serif" font-size="14.00">5</text>
<polyline fill="none" stroke="black" points="255.484,-473.6 318.516,-473.6 "/>
<text text-anchor="middle" x="287" y="-455.6" font-family="Times,serif" font-size="14.00">“ much”</text>
</g>
<!-- 93425152&#45;&gt;4575007 -->
<g id="edge10" class="edge"><title>93425152:right&#45;&gt;4575007:type</title>
<path fill="none" stroke="black" d="M262,-560C262,-544.629 277.565,-543.23 284.132,-533.753"/>
<polygon fill="black" stroke="black" points="287.537,-534.581 287,-524 280.821,-532.606 287.537,-534.581"/>
</g>
<!-- 83435934 -->
<g id="node17" class="node"><title>83435934</title>
<polygon fill="#e3e3e3" stroke="black" points="116.452,-336.8 116.452,-411.2 193.548,-411.2 193.548,-336.8 116.452,-336.8"/>
<text text-anchor="middle" x="155" y="-393.2" font-family="Times,serif" font-size="14.00">concat</text>
<polyline fill="none" stroke="black" points="116.452,-386.4 193.548,-386.4 "/>
<text text-anchor="middle" x="155" y="-368.4" font-family="Times,serif" font-size="14.00">17</text>
<polyline fill="none" stroke="black" points="116.452,-361.6 193.548,-361.6 "/>
<text text-anchor="middle" x="133.779" y="-343.6" font-family="Times,serif" font-size="14.00">left</text>
<polyline fill="none" stroke="black" points="151.107,-336.8 151.107,-361.6 "/>
<text text-anchor="middle" x="172.328" y="-343.6" font-family="Times,serif" font-size="14.00">right</text>
</g>
<!-- 7751630&#45;&gt;83435934 -->
<g id="edge7" class="edge"><title>7751630:left&#45;&gt;83435934:type</title>
<path fill="none" stroke="black" d="M178,-448C178,-433.167 163.962,-431.126 157.82,-421.89"/>
<polygon fill="black" stroke="black" points="161.108,-420.657 155,-412 154.377,-422.576 161.108,-420.657"/>
</g>
<!-- 50255239 -->
<g id="node24" class="node"><title>50255239</title>
<polygon fill="none" stroke="black" points="211.981,-336.8 211.981,-411.2 268.019,-411.2 268.019,-336.8 211.981,-336.8"/>
<text text-anchor="middle" x="240" y="-393.2" font-family="Times,serif" font-size="14.00">leaf</text>
<polyline fill="none" stroke="black" points="211.981,-386.4 268.019,-386.4 "/>
<text text-anchor="middle" x="240" y="-368.4" font-family="Times,serif" font-size="14.00">4</text>
<polyline fill="none" stroke="black" points="211.981,-361.6 268.019,-361.6 "/>
<text text-anchor="middle" x="240" y="-343.6" font-family="Times,serif" font-size="14.00">“ how”</text>
</g>
<!-- 7751630&#45;&gt;50255239 -->
<g id="edge8" class="edge"><title>7751630:right&#45;&gt;50255239:type</title>
<path fill="none" stroke="black" d="M216,-448C216,-432.827 230.943,-431.157 237.247,-421.681"/>
<polygon fill="black" stroke="black" points="240.631,-422.576 240,-412 233.898,-420.661 240.631,-422.576"/>
</g>
<!-- 61848614 -->
<g id="node18" class="node"><title>61848614</title>
<polygon fill="#e3e3e3" stroke="black" points="72.4517,-224.8 72.4517,-299.2 149.548,-299.2 149.548,-224.8 72.4517,-224.8"/>
<text text-anchor="middle" x="111" y="-281.2" font-family="Times,serif" font-size="14.00">concat</text>
<polyline fill="none" stroke="black" points="72.4517,-274.4 149.548,-274.4 "/>
<text text-anchor="middle" x="111" y="-256.4" font-family="Times,serif" font-size="14.00">12</text>
<polyline fill="none" stroke="black" points="72.4517,-249.6 149.548,-249.6 "/>
<text text-anchor="middle" x="89.7793" y="-231.6" font-family="Times,serif" font-size="14.00">left</text>
<polyline fill="none" stroke="black" points="107.107,-224.8 107.107,-249.6 "/>
<text text-anchor="middle" x="128.328" y="-231.6" font-family="Times,serif" font-size="14.00">right</text>
</g>
<!-- 83435934&#45;&gt;61848614 -->
<g id="edge5" class="edge"><title>83435934:left&#45;&gt;61848614:type</title>
<path fill="none" stroke="black" d="M134,-336C134,-321.167 119.962,-319.126 113.82,-309.89"/>
<polygon fill="black" stroke="black" points="117.108,-308.657 111,-300 110.377,-310.576 117.108,-308.657"/>
</g>
<!-- 20732410 -->
<g id="node23" class="node"><title>20732410</title>
<polygon fill="none" stroke="black" points="167.377,-224.8 167.377,-299.2 222.623,-299.2 222.623,-224.8 167.377,-224.8"/>
<text text-anchor="middle" x="195" y="-281.2" font-family="Times,serif" font-size="14.00">leaf</text>
<polyline fill="none" stroke="black" points="167.377,-274.4 222.623,-274.4 "/>
<text text-anchor="middle" x="195" y="-256.4" font-family="Times,serif" font-size="14.00">5</text>
<polyline fill="none" stroke="black" points="167.377,-249.6 222.623,-249.6 "/>
<text text-anchor="middle" x="195" y="-231.6" font-family="Times,serif" font-size="14.00">“ idea”</text>
</g>
<!-- 83435934&#45;&gt;20732410 -->
<g id="edge6" class="edge"><title>83435934:right&#45;&gt;20732410:type</title>
<path fill="none" stroke="black" d="M172,-336C172,-321.167 186.038,-319.126 192.18,-309.89"/>
<polygon fill="black" stroke="black" points="195.623,-310.576 195,-300 188.892,-308.657 195.623,-310.576"/>
</g>
<!-- 91624242 -->
<g id="node19" class="node"><title>91624242</title>
<polygon fill="#e3e3e3" stroke="black" points="28.4517,-112.8 28.4517,-187.2 105.548,-187.2 105.548,-112.8 28.4517,-112.8"/>
<text text-anchor="middle" x="67" y="-169.2" font-family="Times,serif" font-size="14.00">concat</text>
<polyline fill="none" stroke="black" points="28.4517,-162.4 105.548,-162.4 "/>
<text text-anchor="middle" x="67" y="-144.4" font-family="Times,serif" font-size="14.00">8</text>
<polyline fill="none" stroke="black" points="28.4517,-137.6 105.548,-137.6 "/>
<text text-anchor="middle" x="45.7793" y="-119.6" font-family="Times,serif" font-size="14.00">left</text>
<polyline fill="none" stroke="black" points="63.1069,-112.8 63.1069,-137.6 "/>
<text text-anchor="middle" x="84.3276" y="-119.6" font-family="Times,serif" font-size="14.00">right</text>
</g>
<!-- 61848614&#45;&gt;91624242 -->
<g id="edge3" class="edge"><title>61848614:left&#45;&gt;91624242:type</title>
<path fill="none" stroke="black" d="M90,-224C90,-209.167 75.9619,-207.126 69.8203,-197.89"/>
<polygon fill="black" stroke="black" points="73.1082,-196.657 67,-188 66.3766,-198.576 73.1082,-196.657"/>
</g>
<!-- 20211335 -->
<g id="node22" class="node"><title>20211335</title>
<polygon fill="none" stroke="black" points="124,-112.8 124,-187.2 178,-187.2 178,-112.8 124,-112.8"/>
<text text-anchor="middle" x="150.571" y="-169.2" font-family="Times,serif" font-size="14.00">leaf</text>
<polyline fill="none" stroke="black" points="124,-162.4 177.142,-162.4 "/>
<text text-anchor="middle" x="150.571" y="-144.4" font-family="Times,serif" font-size="14.00">4</text>
<polyline fill="none" stroke="black" points="124,-137.6 177.142,-137.6 "/>
<text text-anchor="middle" x="150.571" y="-119.6" font-family="Times,serif" font-size="14.00">“ any”</text>
</g>
<!-- 61848614&#45;&gt;20211335 -->
<g id="edge4" class="edge"><title>61848614:right&#45;&gt;20211335:type</title>
<path fill="none" stroke="black" d="M128,-224C128,-209.167 142.038,-207.126 148.18,-197.89"/>
<polygon fill="black" stroke="black" points="151.623,-198.576 151,-188 144.892,-196.657 151.623,-198.576"/>
</g>
<!-- 132039725 -->
<g id="node20" class="node"><title>132039725</title>
<polygon fill="none" stroke="black" points="-0.98291,-0.8 -0.98291,-75.2 56.9829,-75.2 56.9829,-0.8 -0.98291,-0.8"/>
<text text-anchor="middle" x="28" y="-57.2" font-family="Times,serif" font-size="14.00">leaf</text>
<polyline fill="none" stroke="black" points="-0.98291,-50.4 56.9829,-50.4 "/>
<text text-anchor="middle" x="28" y="-32.4" font-family="Times,serif" font-size="14.00">4</text>
<polyline fill="none" stroke="black" points="-0.98291,-25.6 56.9829,-25.6 "/>
<text text-anchor="middle" x="28" y="-7.6" font-family="Times,serif" font-size="14.00">“Have”</text>
</g>
<!-- 91624242&#45;&gt;132039725 -->
<g id="edge1" class="edge"><title>91624242:left&#45;&gt;132039725:type</title>
<path fill="none" stroke="black" d="M46,-112C46,-98.1643 35.2323,-94.8963 30.3532,-85.8491"/>
<polygon fill="black" stroke="black" points="33.7281,-84.9129 28,-76 26.9197,-86.5396 33.7281,-84.9129"/>
</g>
<!-- 111192482 -->
<g id="node21" class="node"><title>111192482</title>
<polygon fill="none" stroke="black" points="75,-0.8 75,-75.2 129,-75.2 129,-0.8 75,-0.8"/>
<text text-anchor="middle" x="101.964" y="-57.2" font-family="Times,serif" font-size="14.00">leaf</text>
<polyline fill="none" stroke="black" points="75,-50.4 128.928,-50.4 "/>
<text text-anchor="middle" x="101.964" y="-32.4" font-family="Times,serif" font-size="14.00">4</text>
<polyline fill="none" stroke="black" points="75,-25.6 128.928,-25.6 "/>
<text text-anchor="middle" x="101.964" y="-7.6" font-family="Times,serif" font-size="14.00">“ you”</text>
</g>
<!-- 91624242&#45;&gt;111192482 -->
<g id="edge2" class="edge"><title>91624242:right&#45;&gt;111192482:type</title>
<path fill="none" stroke="black" d="M84,-112C84,-98.1643 94.7677,-94.8963 99.6468,-85.8491"/>
<polygon fill="black" stroke="black" points="103.08,-86.5396 102,-76 96.2719,-84.9129 103.08,-86.5396"/>
</g>
<!-- rope -->
<g id="node40" class="node"><title>rope</title>
<ellipse fill="darkseagreen" stroke="black" cx="884" cy="-2258" rx="28.2939" ry="18"/>
<text text-anchor="middle" x="884" y="-2252.4" font-family="Times,serif" font-size="14.00">rope</text>
</g>
<!-- rope&#45;&gt;87435795 -->
<g id="edge39" class="edge"><title>rope&#45;&gt;87435795</title>
<path fill="none" stroke="black" d="M884,-2239.65C884,-2232.07 884,-2222.78 884,-2213.42"/>
<polygon fill="black" stroke="black" points="887.5,-2213.3 884,-2203.3 880.5,-2213.3 887.5,-2213.3"/>
</g>
</g>
</svg>
