<?xml version="1.0" encoding="UTF-8" standalone="no"?>
<!DOCTYPE svg PUBLIC "-//W3C//DTD SVG 1.1//EN"
 "http://www.w3.org/Graphics/SVG/1.1/DTD/svg11.dtd">
<!-- Generated by graphviz version 2.32.0 (20130807.1552)
 -->
<!-- Title: manipulationsbalanced Pages: 1 -->
<svg width="1183pt" height="492pt"
 viewBox="0.00 0.00 1183.00 492.00" xmlns="http://www.w3.org/2000/svg" xmlns:xlink="http://www.w3.org/1999/xlink">
<g id="graph0" class="graph" transform="scale(1 1) rotate(0) translate(4 488)">
<title>manipulationsbalanced</title>
<polygon fill="white" stroke="white" points="-4,5 -4,-488 1180,-488 1180,5 -4,5"/>
<!-- 133306715 -->
<g id="node1" class="node"><title>133306715</title>
<polygon fill="#e3e3e3" stroke="black" points="890.452,-336.8 890.452,-411.2 967.548,-411.2 967.548,-336.8 890.452,-336.8"/>
<text text-anchor="middle" x="929" y="-393.2" font-family="Times,serif" font-size="14.00">concat</text>
<polyline fill="none" stroke="black" points="890.452,-386.4 967.548,-386.4 "/>
<text text-anchor="middle" x="929" y="-368.4" font-family="Times,serif" font-size="14.00">172</text>
<polyline fill="none" stroke="black" points="890.452,-361.6 967.548,-361.6 "/>
<text text-anchor="middle" x="907.779" y="-343.6" font-family="Times,serif" font-size="14.00">left</text>
<polyline fill="none" stroke="black" points="925.107,-336.8 925.107,-361.6 "/>
<text text-anchor="middle" x="946.328" y="-343.6" font-family="Times,serif" font-size="14.00">right</text>
</g>
<!-- 111726049 -->
<g id="node2" class="node"><title>111726049</title>
<polygon fill="#e3e3e3" stroke="black" points="635.452,-224.8 635.452,-299.2 712.548,-299.2 712.548,-224.8 635.452,-224.8"/>
<text text-anchor="middle" x="674" y="-281.2" font-family="Times,serif" font-size="14.00">concat</text>
<polyline fill="none" stroke="black" points="635.452,-274.4 712.548,-274.4 "/>
<text text-anchor="middle" x="674" y="-256.4" font-family="Times,serif" font-size="14.00">146</text>
<polyline fill="none" stroke="black" points="635.452,-249.6 712.548,-249.6 "/>
<text text-anchor="middle" x="652.779" y="-231.6" font-family="Times,serif" font-size="14.00">left</text>
<polyline fill="none" stroke="black" points="670.107,-224.8 670.107,-249.6 "/>
<text text-anchor="middle" x="691.328" y="-231.6" font-family="Times,serif" font-size="14.00">right</text>
</g>
<!-- 133306715&#45;&gt;111726049 -->
<g id="edge7" class="edge"><title>133306715:left&#45;&gt;111726049:type</title>
<path fill="none" stroke="black" d="M889,-349C810.031,-349 797.506,-292.214 724.246,-287.334"/>
<polygon fill="black" stroke="black" points="724.109,-283.827 714,-287 723.881,-290.824 724.109,-283.827"/>
</g>
<!-- 109289501 -->
<g id="node9" class="node"><title>109289501</title>
<polygon fill="#e3e3e3" stroke="black" points="1024.45,-224.8 1024.45,-299.2 1101.55,-299.2 1101.55,-224.8 1024.45,-224.8"/>
<text text-anchor="middle" x="1063" y="-281.2" font-family="Times,serif" font-size="14.00">concat</text>
<polyline fill="none" stroke="black" points="1024.45,-274.4 1101.55,-274.4 "/>
<text text-anchor="middle" x="1063" y="-256.4" font-family="Times,serif" font-size="14.00">26</text>
<polyline fill="none" stroke="black" points="1024.45,-249.6 1101.55,-249.6 "/>
<text text-anchor="middle" x="1041.78" y="-231.6" font-family="Times,serif" font-size="14.00">left</text>
<polyline fill="none" stroke="black" points="1059.11,-224.8 1059.11,-249.6 "/>
<text text-anchor="middle" x="1080.33" y="-231.6" font-family="Times,serif" font-size="14.00">right</text>
</g>
<!-- 133306715&#45;&gt;109289501 -->
<g id="edge12" class="edge"><title>133306715:right&#45;&gt;109289501:type</title>
<path fill="none" stroke="black" d="M969,-349C1001.69,-349 989.865,-299.388 1013.16,-288.924"/>
<polygon fill="black" stroke="black" points="1013.86,-292.354 1023,-287 1012.51,-285.484 1013.86,-292.354"/>
</g>
<!-- 32977535 -->
<g id="node3" class="node"><title>32977535</title>
<polygon fill="#e3e3e3" stroke="black" points="231.452,-112.8 231.452,-187.2 308.548,-187.2 308.548,-112.8 231.452,-112.8"/>
<text text-anchor="middle" x="270" y="-169.2" font-family="Times,serif" font-size="14.00">concat</text>
<polyline fill="none" stroke="black" points="231.452,-162.4 308.548,-162.4 "/>
<text text-anchor="middle" x="270" y="-144.4" font-family="Times,serif" font-size="14.00">41</text>
<polyline fill="none" stroke="black" points="231.452,-137.6 308.548,-137.6 "/>
<text text-anchor="middle" x="248.779" y="-119.6" font-family="Times,serif" font-size="14.00">left</text>
<polyline fill="none" stroke="black" points="266.107,-112.8 266.107,-137.6 "/>
<text text-anchor="middle" x="287.328" y="-119.6" font-family="Times,serif" font-size="14.00">right</text>
</g>
<!-- 111726049&#45;&gt;32977535 -->
<g id="edge3" class="edge"><title>111726049:left&#45;&gt;32977535:type</title>
<path fill="none" stroke="black" d="M634,-237C490.823,-237 458.119,-177.872 320.121,-175.101"/>
<polygon fill="black" stroke="black" points="320.034,-171.6 310,-175 319.965,-178.599 320.034,-171.6"/>
</g>
<!-- 128716096 -->
<g id="node6" class="node"><title>128716096</title>
<polygon fill="#e3e3e3" stroke="black" points="652.452,-112.8 652.452,-187.2 729.548,-187.2 729.548,-112.8 652.452,-112.8"/>
<text text-anchor="middle" x="691" y="-169.2" font-family="Times,serif" font-size="14.00">concat</text>
<polyline fill="none" stroke="black" points="652.452,-162.4 729.548,-162.4 "/>
<text text-anchor="middle" x="691" y="-144.4" font-family="Times,serif" font-size="14.00">105</text>
<polyline fill="none" stroke="black" points="652.452,-137.6 729.548,-137.6 "/>
<text text-anchor="middle" x="669.779" y="-119.6" font-family="Times,serif" font-size="14.00">left</text>
<polyline fill="none" stroke="black" points="687.107,-112.8 687.107,-137.6 "/>
<text text-anchor="middle" x="708.328" y="-119.6" font-family="Times,serif" font-size="14.00">right</text>
</g>
<!-- 111726049&#45;&gt;128716096 -->
<g id="edge6" class="edge"><title>111726049:right&#45;&gt;128716096:type</title>
<path fill="none" stroke="black" d="M691,-224C691,-212 691,-206.75 691,-198.125"/>
<polygon fill="black" stroke="black" points="694.5,-198 691,-188 687.5,-198 694.5,-198"/>
</g>
<!-- 38126929 -->
<g id="node4" class="node"><title>38126929</title>
<polygon fill="none" stroke="black" points="-0.407227,-0.8 -0.407227,-75.2 222.407,-75.2 222.407,-0.8 -0.407227,-0.8"/>
<text text-anchor="middle" x="111" y="-57.2" font-family="Times,serif" font-size="14.00">leaf</text>
<polyline fill="none" stroke="black" points="-0.407227,-50.4 222.407,-50.4 "/>
<text text-anchor="middle" x="111" y="-32.4" font-family="Times,serif" font-size="14.00">30</text>
<polyline fill="none" stroke="black" points="-0.407227,-25.6 222.407,-25.6 "/>
<text text-anchor="middle" x="111" y="-7.6" font-family="Times,serif" font-size="14.00">“Have you any idea how much dam”</text>
</g>
<!-- 32977535&#45;&gt;38126929 -->
<g id="edge1" class="edge"><title>32977535:left&#45;&gt;38126929:type</title>
<path fill="none" stroke="black" d="M230,-125C207.469,-125 235.236,-84.0703 231.567,-68.7217"/>
<polygon fill="black" stroke="black" points="233.26,-65.6434 223,-63 229.372,-71.4645 233.26,-65.6434"/>
</g>
<!-- 93873436 -->
<g id="node5" class="node"><title>93873436</title>
<polygon fill="none" stroke="black" points="240.708,-0.8 240.708,-75.2 333.292,-75.2 333.292,-0.8 240.708,-0.8"/>
<text text-anchor="middle" x="287" y="-57.2" font-family="Times,serif" font-size="14.00">leaf</text>
<polyline fill="none" stroke="black" points="240.708,-50.4 333.292,-50.4 "/>
<text text-anchor="middle" x="287" y="-32.4" font-family="Times,serif" font-size="14.00">11</text>
<polyline fill="none" stroke="black" points="240.708,-25.6 333.292,-25.6 "/>
<text text-anchor="middle" x="287" y="-7.6" font-family="Times,serif" font-size="14.00">“hello world”</text>
</g>
<!-- 32977535&#45;&gt;93873436 -->
<g id="edge2" class="edge"><title>32977535:right&#45;&gt;93873436:type</title>
<path fill="none" stroke="black" d="M287,-112C287,-100 287,-94.75 287,-86.125"/>
<polygon fill="black" stroke="black" points="290.5,-86 287,-76 283.5,-86 290.5,-86"/>
</g>
<!-- 99381492 -->
<g id="node7" class="node"><title>99381492</title>
<polygon fill="none" stroke="black" points="351.321,-0.8 351.321,-75.2 754.679,-75.2 754.679,-0.8 351.321,-0.8"/>
<text text-anchor="middle" x="553" y="-57.2" font-family="Times,serif" font-size="14.00">leaf</text>
<polyline fill="none" stroke="black" points="351.321,-50.4 754.679,-50.4 "/>
<text text-anchor="middle" x="553" y="-32.4" font-family="Times,serif" font-size="14.00">72</text>
<polyline fill="none" stroke="black" points="351.321,-25.6 754.679,-25.6 "/>
<text text-anchor="middle" x="553" y="-7.6" font-family="Times,serif" font-size="14.00">“age that bulldozer would suffer if I just let it roll straight over you?”</text>
</g>
<!-- 128716096&#45;&gt;99381492 -->
<g id="edge4" class="edge"><title>128716096:left&#45;&gt;99381492:type</title>
<path fill="none" stroke="black" d="M651,-125C645.205,-125 648.467,-116.593 652,-112 681.566,-73.562 725.434,-114.438 755,-76 755.662,-75.1388 756.315,-74.1435 756.901,-73.0946"/>
<polygon fill="black" stroke="black" points="760.375,-72.6493 756,-63 753.403,-73.2715 760.375,-72.6493"/>
</g>
<!-- 74273820 -->
<g id="node8" class="node"><title>74273820</title>
<polygon fill="none" stroke="black" points="772.969,-0.8 772.969,-75.2 967.031,-75.2 967.031,-0.8 772.969,-0.8"/>
<text text-anchor="middle" x="870" y="-57.2" font-family="Times,serif" font-size="14.00">leaf</text>
<polyline fill="none" stroke="black" points="772.969,-50.4 967.031,-50.4 "/>
<text text-anchor="middle" x="870" y="-32.4" font-family="Times,serif" font-size="14.00">33</text>
<polyline fill="none" stroke="black" points="772.969,-25.6 967.031,-25.6 "/>
<text text-anchor="middle" x="870" y="-7.6" font-family="Times,serif" font-size="14.00">“st let it roll straight over you?”</text>
</g>
<!-- 128716096&#45;&gt;74273820 -->
<g id="edge5" class="edge"><title>128716096:right&#45;&gt;74273820:type</title>
<path fill="none" stroke="black" d="M731,-125C731.794,-125 755.034,-88.2849 766.174,-71.3616"/>
<polygon fill="black" stroke="black" points="769.155,-73.2058 772,-63 763.412,-69.2043 769.155,-73.2058"/>
</g>
<!-- 33626121 -->
<g id="node10" class="node"><title>33626121</title>
<polygon fill="#e3e3e3" stroke="black" points="1003.45,-112.8 1003.45,-187.2 1080.55,-187.2 1080.55,-112.8 1003.45,-112.8"/>
<text text-anchor="middle" x="1042" y="-169.2" font-family="Times,serif" font-size="14.00">concat</text>
<polyline fill="none" stroke="black" points="1003.45,-162.4 1080.55,-162.4 "/>
<text text-anchor="middle" x="1042" y="-144.4" font-family="Times,serif" font-size="14.00">19</text>
<polyline fill="none" stroke="black" points="1003.45,-137.6 1080.55,-137.6 "/>
<text text-anchor="middle" x="1020.78" y="-119.6" font-family="Times,serif" font-size="14.00">left</text>
<polyline fill="none" stroke="black" points="1038.11,-112.8 1038.11,-137.6 "/>
<text text-anchor="middle" x="1059.33" y="-119.6" font-family="Times,serif" font-size="14.00">right</text>
</g>
<!-- 109289501&#45;&gt;33626121 -->
<g id="edge10" class="edge"><title>109289501:left&#45;&gt;33626121:type</title>
<path fill="none" stroke="black" d="M1042,-224C1042,-212 1042,-206.75 1042,-198.125"/>
<polygon fill="black" stroke="black" points="1045.5,-198 1042,-188 1038.5,-198 1045.5,-198"/>
</g>
<!-- 84990334 -->
<g id="node13" class="node"><title>84990334</title>
<polygon fill="none" stroke="black" points="1098.38,-112.8 1098.38,-187.2 1167.62,-187.2 1167.62,-112.8 1098.38,-112.8"/>
<text text-anchor="middle" x="1133" y="-169.2" font-family="Times,serif" font-size="14.00">leaf</text>
<polyline fill="none" stroke="black" points="1098.38,-162.4 1167.62,-162.4 "/>
<text text-anchor="middle" x="1133" y="-144.4" font-family="Times,serif" font-size="14.00">7</text>
<polyline fill="none" stroke="black" points="1098.38,-137.6 1167.62,-137.6 "/>
<text text-anchor="middle" x="1133" y="-119.6" font-family="Times,serif" font-size="14.00">“the end”</text>
</g>
<!-- 109289501&#45;&gt;84990334 -->
<g id="edge11" class="edge"><title>109289501:right&#45;&gt;84990334:type</title>
<path fill="none" stroke="black" d="M1080,-224C1080,-219.858 1085.81,-196.357 1091.21,-183.465"/>
<polygon fill="black" stroke="black" points="1094.24,-185.23 1097,-175 1088.47,-181.278 1094.24,-185.23"/>
</g>
<!-- 46009510 -->
<g id="node11" class="node"><title>46009510</title>
<polygon fill="none" stroke="black" points="985.403,-0.8 985.403,-75.2 1056.6,-75.2 1056.6,-0.8 985.403,-0.8"/>
<text text-anchor="middle" x="1021" y="-57.2" font-family="Times,serif" font-size="14.00">leaf</text>
<polyline fill="none" stroke="black" points="985.403,-50.4 1056.6,-50.4 "/>
<text text-anchor="middle" x="1021" y="-32.4" font-family="Times,serif" font-size="14.00">6</text>
<polyline fill="none" stroke="black" points="985.403,-25.6 1056.6,-25.6 "/>
<text text-anchor="middle" x="1021" y="-7.6" font-family="Times,serif" font-size="14.00">“random”</text>
</g>
<!-- 33626121&#45;&gt;46009510 -->
<g id="edge8" class="edge"><title>33626121:left&#45;&gt;46009510:type</title>
<path fill="none" stroke="black" d="M1021,-112C1021,-100 1021,-94.75 1021,-86.125"/>
<polygon fill="black" stroke="black" points="1024.5,-86 1021,-76 1017.5,-86 1024.5,-86"/>
</g>
<!-- 127958795 -->
<g id="node12" class="node"><title>127958795</title>
<polygon fill="none" stroke="black" points="1074.63,-0.8 1074.63,-75.2 1175.37,-75.2 1175.37,-0.8 1074.63,-0.8"/>
<text text-anchor="middle" x="1125" y="-57.2" font-family="Times,serif" font-size="14.00">leaf</text>
<polyline fill="none" stroke="black" points="1074.63,-50.4 1175.37,-50.4 "/>
<text text-anchor="middle" x="1125" y="-32.4" font-family="Times,serif" font-size="14.00">13</text>
<polyline fill="none" stroke="black" points="1074.63,-25.6 1175.37,-25.6 "/>
<text text-anchor="middle" x="1125" y="-7.6" font-family="Times,serif" font-size="14.00">“text added to”</text>
</g>
<!-- 33626121&#45;&gt;127958795 -->
<g id="edge9" class="edge"><title>33626121:right&#45;&gt;127958795:type</title>
<path fill="none" stroke="black" d="M1082,-125C1092.42,-125 1074.9,-90.125 1071.34,-72.6875"/>
<polygon fill="black" stroke="black" points="1074.73,-73.5696 1074,-63 1067.98,-71.718 1074.73,-73.5696"/>
</g>
<!-- balanced -->
<g id="node14" class="node"><title>balanced</title>
<ellipse fill="darkseagreen" stroke="black" cx="929" cy="-466" rx="45.0257" ry="18"/>
<text text-anchor="middle" x="929" y="-460.4" font-family="Times,serif" font-size="14.00">balanced</text>
</g>
<!-- balanced&#45;&gt;133306715 -->
<g id="edge13" class="edge"><title>balanced&#45;&gt;133306715</title>
<path fill="none" stroke="black" d="M929,-447.647C929,-440.07 929,-430.785 929,-421.418"/>
<polygon fill="black" stroke="black" points="932.5,-421.298 929,-411.298 925.5,-421.298 932.5,-421.298"/>
</g>
</g>
</svg>
