<?xml version="1.0" encoding="UTF-8" standalone="no"?>
<!DOCTYPE svg PUBLIC "-//W3C//DTD SVG 1.1//EN"
 "http://www.w3.org/Graphics/SVG/1.1/DTD/svg11.dtd">
<!-- Generated by graphviz version 2.32.0 (20130807.1552)
 -->
<!-- Title: manipulations Pages: 1 -->
<svg width="738pt" height="828pt"
 viewBox="0.00 0.00 738.00 828.00" xmlns="http://www.w3.org/2000/svg" xmlns:xlink="http://www.w3.org/1999/xlink">
<g id="graph0" class="graph" transform="scale(1 1) rotate(0) translate(4 824)">
<title>manipulations</title>
<polygon fill="white" stroke="white" points="-4,5 -4,-824 735,-824 735,5 -4,5"/>
<!-- 94785520 -->
<g id="node1" class="node"><title>94785520</title>
<polygon fill="none" stroke="black" points="-0.872559,-672.8 -0.872559,-747.2 596.873,-747.2 596.873,-672.8 -0.872559,-672.8"/>
<text text-anchor="middle" x="298" y="-729.2" font-family="Times,serif" font-size="14.00">leaf</text>
<polyline fill="none" stroke="black" points="-0.872559,-722.4 596.873,-722.4 "/>
<text text-anchor="middle" x="298" y="-704.4" font-family="Times,serif" font-size="14.00">102</text>
<polyline fill="none" stroke="black" points="-0.872559,-697.6 596.873,-697.6 "/>
<text text-anchor="middle" x="298" y="-679.6" font-family="Times,serif" font-size="14.00">“Have you any idea how much damage that bulldozer would suffer if I just let it roll straight over you?”</text>
</g>
<!-- original -->
<g id="node2" class="node"><title>original</title>
<ellipse fill="darkseagreen" stroke="black" cx="298" cy="-802" rx="41.1096" ry="18"/>
<text text-anchor="middle" x="298" y="-796.4" font-family="Times,serif" font-size="14.00">original</text>
</g>
<!-- original&#45;&gt;94785520 -->
<g id="edge1" class="edge"><title>original&#45;&gt;94785520</title>
<path fill="none" stroke="black" d="M298,-783.647C298,-776.07 298,-766.785 298,-757.418"/>
<polygon fill="black" stroke="black" points="301.5,-757.298 298,-747.298 294.5,-757.298 301.5,-757.298"/>
</g>
<!-- 47300908 -->
<g id="node3" class="node"><title>47300908</title>
<polygon fill="#e3e3e3" stroke="black" points="311.452,-224.8 311.452,-299.2 388.548,-299.2 388.548,-224.8 311.452,-224.8"/>
<text text-anchor="middle" x="350" y="-281.2" font-family="Times,serif" font-size="14.00">concat</text>
<polyline fill="none" stroke="black" points="311.452,-274.4 388.548,-274.4 "/>
<text text-anchor="middle" x="350" y="-256.4" font-family="Times,serif" font-size="14.00">113</text>
<polyline fill="none" stroke="black" points="311.452,-249.6 388.548,-249.6 "/>
<text text-anchor="middle" x="328.779" y="-231.6" font-family="Times,serif" font-size="14.00">left</text>
<polyline fill="none" stroke="black" points="346.107,-224.8 346.107,-249.6 "/>
<text text-anchor="middle" x="367.328" y="-231.6" font-family="Times,serif" font-size="14.00">right</text>
</g>
<!-- 32977535 -->
<g id="node4" class="node"><title>32977535</title>
<polygon fill="#e3e3e3" stroke="black" points="180.452,-112.8 180.452,-187.2 257.548,-187.2 257.548,-112.8 180.452,-112.8"/>
<text text-anchor="middle" x="219" y="-169.2" font-family="Times,serif" font-size="14.00">concat</text>
<polyline fill="none" stroke="black" points="180.452,-162.4 257.548,-162.4 "/>
<text text-anchor="middle" x="219" y="-144.4" font-family="Times,serif" font-size="14.00">41</text>
<polyline fill="none" stroke="black" points="180.452,-137.6 257.548,-137.6 "/>
<text text-anchor="middle" x="197.779" y="-119.6" font-family="Times,serif" font-size="14.00">left</text>
<polyline fill="none" stroke="black" points="215.107,-112.8 215.107,-137.6 "/>
<text text-anchor="middle" x="236.328" y="-119.6" font-family="Times,serif" font-size="14.00">right</text>
</g>
<!-- 47300908&#45;&gt;32977535 -->
<g id="edge4" class="edge"><title>47300908:left&#45;&gt;32977535:type</title>
<path fill="none" stroke="black" d="M310,-237C280.731,-237 282.835,-211.943 266,-188 265.056,-186.658 264.557,-185.174 264.237,-183.704"/>
<polygon fill="black" stroke="black" points="267.154,-181.764 259,-175 261.156,-185.373 267.154,-181.764"/>
</g>
<!-- 99381492 -->
<g id="node7" class="node"><title>99381492</title>
<polygon fill="none" stroke="black" points="275.321,-112.8 275.321,-187.2 678.679,-187.2 678.679,-112.8 275.321,-112.8"/>
<text text-anchor="middle" x="477" y="-169.2" font-family="Times,serif" font-size="14.00">leaf</text>
<polyline fill="none" stroke="black" points="275.321,-162.4 678.679,-162.4 "/>
<text text-anchor="middle" x="477" y="-144.4" font-family="Times,serif" font-size="14.00">72</text>
<polyline fill="none" stroke="black" points="275.321,-137.6 678.679,-137.6 "/>
<text text-anchor="middle" x="477" y="-119.6" font-family="Times,serif" font-size="14.00">“age that bulldozer would suffer if I just let it roll straight over you?”</text>
</g>
<!-- 47300908&#45;&gt;99381492 -->
<g id="edge5" class="edge"><title>47300908:right&#45;&gt;99381492:type</title>
<path fill="none" stroke="black" d="M390,-237C395.795,-237 392.602,-228.539 389,-224 355.97,-182.381 308.03,-229.619 275,-188 274.325,-187.149 273.664,-186.16 273.073,-185.115"/>
<polygon fill="black" stroke="black" points="276.573,-185.278 274,-175 269.602,-184.639 276.573,-185.278"/>
</g>
<!-- 38126929 -->
<g id="node5" class="node"><title>38126929</title>
<polygon fill="none" stroke="black" points="17.5928,-0.8 17.5928,-75.2 240.407,-75.2 240.407,-0.8 17.5928,-0.8"/>
<text text-anchor="middle" x="129" y="-57.2" font-family="Times,serif" font-size="14.00">leaf</text>
<polyline fill="none" stroke="black" points="17.5928,-50.4 240.407,-50.4 "/>
<text text-anchor="middle" x="129" y="-32.4" font-family="Times,serif" font-size="14.00">30</text>
<polyline fill="none" stroke="black" points="17.5928,-25.6 240.407,-25.6 "/>
<text text-anchor="middle" x="129" y="-7.6" font-family="Times,serif" font-size="14.00">“Have you any idea how much dam”</text>
</g>
<!-- 32977535&#45;&gt;38126929 -->
<g id="edge2" class="edge"><title>32977535:left&#45;&gt;38126929:type</title>
<path fill="none" stroke="black" d="M198,-112C198,-87.4145 228.877,-97.9255 240,-76 240.451,-75.1118 240.947,-74.1448 241.431,-73.1525"/>
<polygon fill="black" stroke="black" points="244.921,-72.8426 241,-63 237.927,-73.1394 244.921,-72.8426"/>
</g>
<!-- 93873436 -->
<g id="node6" class="node"><title>93873436</title>
<polygon fill="none" stroke="black" points="258.708,-0.8 258.708,-75.2 351.292,-75.2 351.292,-0.8 258.708,-0.8"/>
<text text-anchor="middle" x="305" y="-57.2" font-family="Times,serif" font-size="14.00">leaf</text>
<polyline fill="none" stroke="black" points="258.708,-50.4 351.292,-50.4 "/>
<text text-anchor="middle" x="305" y="-32.4" font-family="Times,serif" font-size="14.00">11</text>
<polyline fill="none" stroke="black" points="258.708,-25.6 351.292,-25.6 "/>
<text text-anchor="middle" x="305" y="-7.6" font-family="Times,serif" font-size="14.00">“hello world”</text>
</g>
<!-- 32977535&#45;&gt;93873436 -->
<g id="edge3" class="edge"><title>32977535:right&#45;&gt;93873436:type</title>
<path fill="none" stroke="black" d="M259,-125C269.389,-125 255.713,-89.7608 254.257,-72.4165"/>
<polygon fill="black" stroke="black" points="257.559,-73.5856 258,-63 251.054,-71 257.559,-73.5856"/>
</g>
<!-- insert -->
<g id="node8" class="node"><title>insert</title>
<ellipse fill="darkseagreen" stroke="black" cx="340" cy="-374" rx="32.2368" ry="18"/>
<text text-anchor="middle" x="340" y="-368.4" font-family="Times,serif" font-size="14.00">insert</text>
</g>
<!-- insert&#45;&gt;47300908 -->
<g id="edge6" class="edge"><title>insert&#45;&gt;47300908</title>
<path fill="none" stroke="black" d="M341.562,-355.812C342.691,-343.403 344.271,-326.015 345.76,-309.64"/>
<polygon fill="black" stroke="black" points="349.25,-309.904 346.67,-299.628 342.279,-309.27 349.25,-309.904"/>
</g>
<!-- 74273820 -->
<g id="node9" class="node"><title>74273820</title>
<polygon fill="none" stroke="black" points="411.969,-224.8 411.969,-299.2 606.031,-299.2 606.031,-224.8 411.969,-224.8"/>
<text text-anchor="middle" x="509" y="-281.2" font-family="Times,serif" font-size="14.00">leaf</text>
<polyline fill="none" stroke="black" points="411.969,-274.4 606.031,-274.4 "/>
<text text-anchor="middle" x="509" y="-256.4" font-family="Times,serif" font-size="14.00">33</text>
<polyline fill="none" stroke="black" points="411.969,-249.6 606.031,-249.6 "/>
<text text-anchor="middle" x="509" y="-231.6" font-family="Times,serif" font-size="14.00">“st let it roll straight over you?”</text>
</g>
<!-- slice -->
<g id="node10" class="node"><title>slice</title>
<ellipse fill="darkseagreen" stroke="black" cx="514" cy="-374" rx="28.5985" ry="18"/>
<text text-anchor="middle" x="514" y="-368.4" font-family="Times,serif" font-size="14.00">slice</text>
</g>
<!-- slice&#45;&gt;74273820 -->
<g id="edge7" class="edge"><title>slice&#45;&gt;74273820</title>
<path fill="none" stroke="black" d="M513.219,-355.812C512.655,-343.403 511.864,-326.015 511.12,-309.64"/>
<polygon fill="black" stroke="black" points="514.615,-309.459 510.665,-299.628 507.623,-309.777 514.615,-309.459"/>
</g>
<!-- 92721005 -->
<g id="node11" class="node"><title>92721005</title>
<polygon fill="#e3e3e3" stroke="black" points="390.452,-336.8 390.452,-411.2 467.548,-411.2 467.548,-336.8 390.452,-336.8"/>
<text text-anchor="middle" x="429" y="-393.2" font-family="Times,serif" font-size="14.00">concat</text>
<polyline fill="none" stroke="black" points="390.452,-386.4 467.548,-386.4 "/>
<text text-anchor="middle" x="429" y="-368.4" font-family="Times,serif" font-size="14.00">146</text>
<polyline fill="none" stroke="black" points="390.452,-361.6 467.548,-361.6 "/>
<text text-anchor="middle" x="407.779" y="-343.6" font-family="Times,serif" font-size="14.00">left</text>
<polyline fill="none" stroke="black" points="425.107,-336.8 425.107,-361.6 "/>
<text text-anchor="middle" x="446.328" y="-343.6" font-family="Times,serif" font-size="14.00">right</text>
</g>
<!-- 92721005&#45;&gt;47300908 -->
<g id="edge8" class="edge"><title>92721005:left&#45;&gt;47300908:type</title>
<path fill="none" stroke="black" d="M408,-336C408,-327.39 404.475,-304.569 397.915,-293.375"/>
<polygon fill="black" stroke="black" points="399.984,-290.547 390,-287 395.593,-295.999 399.984,-290.547"/>
</g>
<!-- 92721005&#45;&gt;74273820 -->
<g id="edge9" class="edge"><title>92721005:right&#45;&gt;74273820:type</title>
<path fill="none" stroke="black" d="M469,-349C474.795,-349 470.97,-340.976 468,-336 452.836,-310.593 427.164,-325.407 412,-300 411.49,-299.145 410.954,-298.199 410.446,-297.22"/>
<polygon fill="black" stroke="black" points="413.954,-297.175 411,-287 406.964,-296.796 413.954,-297.175"/>
</g>
<!-- concat -->
<g id="node12" class="node"><title>concat</title>
<ellipse fill="darkseagreen" stroke="black" cx="429" cy="-486" rx="36.3534" ry="18"/>
<text text-anchor="middle" x="429" y="-480.4" font-family="Times,serif" font-size="14.00">concat</text>
</g>
<!-- concat&#45;&gt;92721005 -->
<g id="edge10" class="edge"><title>concat&#45;&gt;92721005</title>
<path fill="none" stroke="black" d="M429,-467.812C429,-455.403 429,-438.015 429,-421.64"/>
<polygon fill="black" stroke="black" points="432.5,-421.628 429,-411.628 425.5,-421.628 432.5,-421.628"/>
</g>
<!-- 129053427 -->
<g id="node13" class="node"><title>129053427</title>
<polygon fill="#e3e3e3" stroke="black" points="614.452,-672.8 614.452,-747.2 691.548,-747.2 691.548,-672.8 614.452,-672.8"/>
<text text-anchor="middle" x="653" y="-729.2" font-family="Times,serif" font-size="14.00">concat</text>
<polyline fill="none" stroke="black" points="614.452,-722.4 691.548,-722.4 "/>
<text text-anchor="middle" x="653" y="-704.4" font-family="Times,serif" font-size="14.00">172</text>
<polyline fill="none" stroke="black" points="614.452,-697.6 691.548,-697.6 "/>
<text text-anchor="middle" x="631.779" y="-679.6" font-family="Times,serif" font-size="14.00">left</text>
<polyline fill="none" stroke="black" points="649.107,-672.8 649.107,-697.6 "/>
<text text-anchor="middle" x="670.328" y="-679.6" font-family="Times,serif" font-size="14.00">right</text>
</g>
<!-- 118184392 -->
<g id="node14" class="node"><title>118184392</title>
<polygon fill="#e3e3e3" stroke="black" points="566.452,-560.8 566.452,-635.2 643.548,-635.2 643.548,-560.8 566.452,-560.8"/>
<text text-anchor="middle" x="605" y="-617.2" font-family="Times,serif" font-size="14.00">concat</text>
<polyline fill="none" stroke="black" points="566.452,-610.4 643.548,-610.4 "/>
<text text-anchor="middle" x="605" y="-592.4" font-family="Times,serif" font-size="14.00">165</text>
<polyline fill="none" stroke="black" points="566.452,-585.6 643.548,-585.6 "/>
<text text-anchor="middle" x="583.779" y="-567.6" font-family="Times,serif" font-size="14.00">left</text>
<polyline fill="none" stroke="black" points="601.107,-560.8 601.107,-585.6 "/>
<text text-anchor="middle" x="622.328" y="-567.6" font-family="Times,serif" font-size="14.00">right</text>
</g>
<!-- 129053427&#45;&gt;118184392 -->
<g id="edge15" class="edge"><title>129053427:left&#45;&gt;118184392:type</title>
<path fill="none" stroke="black" d="M632,-672C632,-664.431 642.954,-644.913 646.726,-632.92"/>
<polygon fill="black" stroke="black" points="650.162,-632.252 645,-623 643.266,-633.452 650.162,-632.252"/>
</g>
<!-- 84990334 -->
<g id="node18" class="node"><title>84990334</title>
<polygon fill="none" stroke="black" points="661.377,-560.8 661.377,-635.2 730.623,-635.2 730.623,-560.8 661.377,-560.8"/>
<text text-anchor="middle" x="696" y="-617.2" font-family="Times,serif" font-size="14.00">leaf</text>
<polyline fill="none" stroke="black" points="661.377,-610.4 730.623,-610.4 "/>
<text text-anchor="middle" x="696" y="-592.4" font-family="Times,serif" font-size="14.00">7</text>
<polyline fill="none" stroke="black" points="661.377,-585.6 730.623,-585.6 "/>
<text text-anchor="middle" x="696" y="-567.6" font-family="Times,serif" font-size="14.00">“the end”</text>
</g>
<!-- 129053427&#45;&gt;84990334 -->
<g id="edge16" class="edge"><title>129053427:right&#45;&gt;84990334:type</title>
<path fill="none" stroke="black" d="M670,-672C670,-656.427 686.188,-655.304 693.017,-645.827"/>
<polygon fill="black" stroke="black" points="696.445,-646.585 696,-636 689.747,-644.553 696.445,-646.585"/>
</g>
<!-- 53238014 -->
<g id="node15" class="node"><title>53238014</title>
<polygon fill="#e3e3e3" stroke="black" points="511.452,-448.8 511.452,-523.2 588.548,-523.2 588.548,-448.8 511.452,-448.8"/>
<text text-anchor="middle" x="550" y="-505.2" font-family="Times,serif" font-size="14.00">concat</text>
<polyline fill="none" stroke="black" points="511.452,-498.4 588.548,-498.4 "/>
<text text-anchor="middle" x="550" y="-480.4" font-family="Times,serif" font-size="14.00">152</text>
<polyline fill="none" stroke="black" points="511.452,-473.6 588.548,-473.6 "/>
<text text-anchor="middle" x="528.779" y="-455.6" font-family="Times,serif" font-size="14.00">left</text>
<polyline fill="none" stroke="black" points="546.107,-448.8 546.107,-473.6 "/>
<text text-anchor="middle" x="567.328" y="-455.6" font-family="Times,serif" font-size="14.00">right</text>
</g>
<!-- 118184392&#45;&gt;53238014 -->
<g id="edge13" class="edge"><title>118184392:left&#45;&gt;53238014:type</title>
<path fill="none" stroke="black" d="M584,-560C584,-552.544 591.84,-532.587 593.418,-520.566"/>
<polygon fill="black" stroke="black" points="596.66,-519.24 590,-511 590.068,-521.595 596.66,-519.24"/>
</g>
<!-- 127958795 -->
<g id="node17" class="node"><title>127958795</title>
<polygon fill="none" stroke="black" points="606.631,-448.8 606.631,-523.2 707.369,-523.2 707.369,-448.8 606.631,-448.8"/>
<text text-anchor="middle" x="657" y="-505.2" font-family="Times,serif" font-size="14.00">leaf</text>
<polyline fill="none" stroke="black" points="606.631,-498.4 707.369,-498.4 "/>
<text text-anchor="middle" x="657" y="-480.4" font-family="Times,serif" font-size="14.00">13</text>
<polyline fill="none" stroke="black" points="606.631,-473.6 707.369,-473.6 "/>
<text text-anchor="middle" x="657" y="-455.6" font-family="Times,serif" font-size="14.00">“text added to”</text>
</g>
<!-- 118184392&#45;&gt;127958795 -->
<g id="edge14" class="edge"><title>118184392:right&#45;&gt;127958795:type</title>
<path fill="none" stroke="black" d="M622,-560C622,-545.145 605.64,-528.952 600.383,-519.402"/>
<polygon fill="black" stroke="black" points="603.352,-521.259 606,-511 597.532,-517.368 603.352,-521.259"/>
</g>
<!-- 53238014&#45;&gt;92721005 -->
<g id="edge11" class="edge"><title>53238014:left&#45;&gt;92721005:type</title>
<path fill="none" stroke="black" d="M510,-461C483.493,-461 489.861,-434.594 476,-412 475.142,-410.602 474.686,-409.09 474.381,-407.609"/>
<polygon fill="black" stroke="black" points="477.268,-405.624 469,-399 471.333,-409.335 477.268,-405.624"/>
</g>
<!-- 46009510 -->
<g id="node16" class="node"><title>46009510</title>
<polygon fill="none" stroke="black" points="560.403,-336.8 560.403,-411.2 631.597,-411.2 631.597,-336.8 560.403,-336.8"/>
<text text-anchor="middle" x="596" y="-393.2" font-family="Times,serif" font-size="14.00">leaf</text>
<polyline fill="none" stroke="black" points="560.403,-386.4 631.597,-386.4 "/>
<text text-anchor="middle" x="596" y="-368.4" font-family="Times,serif" font-size="14.00">6</text>
<polyline fill="none" stroke="black" points="560.403,-361.6 631.597,-361.6 "/>
<text text-anchor="middle" x="596" y="-343.6" font-family="Times,serif" font-size="14.00">“random”</text>
</g>
<!-- 53238014&#45;&gt;46009510 -->
<g id="edge12" class="edge"><title>53238014:right&#45;&gt;46009510:type</title>
<path fill="none" stroke="black" d="M567,-448C567,-431.628 585.415,-431.535 592.896,-421.776"/>
<polygon fill="black" stroke="black" points="596.31,-422.59 596,-412 589.638,-420.472 596.31,-422.59"/>
</g>
<!-- multiconcat -->
<g id="node19" class="node"><title>multiconcat</title>
<ellipse fill="darkseagreen" stroke="black" cx="653" cy="-802" rx="56.4357" ry="18"/>
<text text-anchor="middle" x="653" y="-796.4" font-family="Times,serif" font-size="14.00">multiconcat</text>
</g>
<!-- multiconcat&#45;&gt;129053427 -->
<g id="edge17" class="edge"><title>multiconcat&#45;&gt;129053427</title>
<path fill="none" stroke="black" d="M653,-783.647C653,-776.07 653,-766.785 653,-757.418"/>
<polygon fill="black" stroke="black" points="656.5,-757.298 653,-747.298 649.5,-757.298 656.5,-757.298"/>
</g>
</g>
</svg>
