<?xml version="1.0" encoding="UTF-8" standalone="no"?>
<!DOCTYPE svg PUBLIC "-//W3C//DTD SVG 1.1//EN"
 "http://www.w3.org/Graphics/SVG/1.1/DTD/svg11.dtd">
<!-- Generated by graphviz version 2.32.0 (20130807.1552)
 -->
<!-- Title: simple Pages: 1 -->
<svg width="147pt" height="268pt"
 viewBox="0.00 0.00 147.00 268.00" xmlns="http://www.w3.org/2000/svg" xmlns:xlink="http://www.w3.org/1999/xlink">
<g id="graph0" class="graph" transform="scale(1 1) rotate(0) translate(4 264)">
<title>simple</title>
<polygon fill="white" stroke="white" points="-4,5 -4,-264 144,-264 144,5 -4,5"/>
<!-- 80110772 -->
<g id="node1" class="node"><title>80110772</title>
<polygon fill="#e3e3e3" stroke="black" points="30.4517,-112.8 30.4517,-187.2 107.548,-187.2 107.548,-112.8 30.4517,-112.8"/>
<text text-anchor="middle" x="69" y="-169.2" font-family="Times,serif" font-size="14.00">concat</text>
<polyline fill="none" stroke="black" points="30.4517,-162.4 107.548,-162.4 "/>
<text text-anchor="middle" x="69" y="-144.4" font-family="Times,serif" font-size="14.00">11</text>
<polyline fill="none" stroke="black" points="30.4517,-137.6 107.548,-137.6 "/>
<text text-anchor="middle" x="47.7793" y="-119.6" font-family="Times,serif" font-size="14.00">left</text>
<polyline fill="none" stroke="black" points="65.1069,-112.8 65.1069,-137.6 "/>
<text text-anchor="middle" x="86.3276" y="-119.6" font-family="Times,serif" font-size="14.00">right</text>
</g>
<!-- 71122522 -->
<g id="node2" class="node"><title>71122522</title>
<polygon fill="none" stroke="black" points="-0.210449,-0.8 -0.210449,-75.2 56.2104,-75.2 56.2104,-0.8 -0.210449,-0.8"/>
<text text-anchor="middle" x="28" y="-57.2" font-family="Times,serif" font-size="14.00">leaf</text>
<polyline fill="none" stroke="black" points="-0.210449,-50.4 56.2104,-50.4 "/>
<text text-anchor="middle" x="28" y="-32.4" font-family="Times,serif" font-size="14.00">5</text>
<polyline fill="none" stroke="black" points="-0.210449,-25.6 56.2104,-25.6 "/>
<text text-anchor="middle" x="28" y="-7.6" font-family="Times,serif" font-size="14.00">“hello”</text>
</g>
<!-- 80110772&#45;&gt;71122522 -->
<g id="edge1" class="edge"><title>80110772:left&#45;&gt;71122522:type</title>
<path fill="none" stroke="black" d="M48,-112C48,-97.8435 36.0359,-94.9991 30.6147,-85.9684"/>
<polygon fill="black" stroke="black" points="33.9227,-84.7848 28,-76 27.1517,-86.5608 33.9227,-84.7848"/>
</g>
<!-- 118860212 -->
<g id="node3" class="node"><title>118860212</title>
<polygon fill="none" stroke="black" points="74.7051,-0.8 74.7051,-75.2 139.295,-75.2 139.295,-0.8 74.7051,-0.8"/>
<text text-anchor="middle" x="107" y="-57.2" font-family="Times,serif" font-size="14.00">leaf</text>
<polyline fill="none" stroke="black" points="74.7051,-50.4 139.295,-50.4 "/>
<text text-anchor="middle" x="107" y="-32.4" font-family="Times,serif" font-size="14.00">6</text>
<polyline fill="none" stroke="black" points="74.7051,-25.6 139.295,-25.6 "/>
<text text-anchor="middle" x="107" y="-7.6" font-family="Times,serif" font-size="14.00">“ world”</text>
</g>
<!-- 80110772&#45;&gt;118860212 -->
<g id="edge2" class="edge"><title>80110772:right&#45;&gt;118860212:type</title>
<path fill="none" stroke="black" d="M86,-112C86,-97.5287 98.8174,-95.0019 104.425,-85.7562"/>
<polygon fill="black" stroke="black" points="107.832,-86.5621 107,-76 101.064,-84.7757 107.832,-86.5621"/>
</g>
<!-- rope -->
<g id="node4" class="node"><title>rope</title>
<ellipse fill="darkseagreen" stroke="black" cx="69" cy="-242" rx="28.2939" ry="18"/>
<text text-anchor="middle" x="69" y="-236.4" font-family="Times,serif" font-size="14.00">rope</text>
</g>
<!-- rope&#45;&gt;80110772 -->
<g id="edge3" class="edge"><title>rope&#45;&gt;80110772</title>
<path fill="none" stroke="black" d="M69,-223.647C69,-216.07 69,-206.785 69,-197.418"/>
<polygon fill="black" stroke="black" points="72.5001,-197.298 69,-187.298 65.5001,-197.298 72.5001,-197.298"/>
</g>
</g>
</svg>
